<?xml version="1.0" encoding="utf-8"?>
<!-- Generator: Adobe Illustrator 19.2.1, SVG Export Plug-In . SVG Version: 6.00 Build 0)  -->
<svg version="1.1" id="Layer_1"
	 xmlns="http://www.w3.org/2000/svg" xmlns:xlink="http://www.w3.org/1999/xlink" x="0px" y="0px" width="316" height="316"
	 viewBox="0 0 409.5 409.5" style="enable-background:new 0 0 409.5 409.5;" xml:space="preserve">
<style type="text/css">
	.st0{fill:#00285E;}
	.st1{fill:#FFFFFF;}
	.st2{fill:#6CADDF;}
	.st3{fill-rule:evenodd;clip-rule:evenodd;fill:#00285E;}
	.st4{fill-rule:evenodd;clip-rule:evenodd;fill:#97C1E7;}
	.st5{fill-rule:evenodd;clip-rule:evenodd;fill:#FFFFFF;}
	.st6{fill:#FFC758;}
	.st7{fill:#EE3124;}
	.st8{fill:#D4A11E;}
	.st9{fill-rule:evenodd;clip-rule:evenodd;fill:#FFC758;}
	.st10{fill-rule:evenodd;clip-rule:evenodd;fill:#D4A11E;}
</style>
<g>
	<path class="st0" d="M204.8,0C91.9,0,0,91.9,0,204.8c0,112.9,91.9,204.8,204.8,204.8c112.9,0,204.8-91.9,204.8-204.8
		C409.5,91.9,317.7,0,204.8,0"/>
	<path class="st1" d="M388.2,204.8c0-101.3-82.1-183.4-183.5-183.4c-101.3,0-183.5,82.1-183.5,183.4c0,101.3,82.2,183.5,183.5,183.5
		C306.1,388.2,388.2,306.1,388.2,204.8"/>
	<path class="st2" d="M321.6,204.8c0-64.5-52.3-116.8-116.8-116.8C140.3,88,88,140.3,88,204.8c0,64.5,52.3,116.8,116.8,116.8
		C269.3,321.6,321.6,269.3,321.6,204.8"/>
	<path class="st0" d="M204.8,330.8c-69.5,0-126-56.6-126-126.1c0-69.5,56.5-126,126-126c69.5,0,126.1,56.5,126.1,126
		C330.8,274.3,274.3,330.8,204.8,330.8L204.8,330.8z M204.8,85.8c-65.6,0-119,53.4-119,119c0,65.6,53.4,119,119,119
		c65.6,0,119-53.4,119-119C323.8,139.2,270.4,85.8,204.8,85.8L204.8,85.8z"/>
	<path class="st2" d="M204.8,401.2C96.5,401.2,8.4,313.1,8.4,204.8C8.4,96.5,96.5,8.4,204.8,8.4c108.3,0,196.4,88.1,196.4,196.4
		C401.1,313.1,313.1,401.2,204.8,401.2 M204.8,12.6C98.8,12.6,12.7,98.8,12.7,204.8c0,105.9,86.2,192.1,192.1,192.1
		c105.9,0,192.1-86.2,192.1-192.1C396.9,98.8,310.7,12.6,204.8,12.6"/>
	<g>
		<path class="st2" d="M40.9,200.3l-3.3,0.8l-0.9-3.4l5.5-1.6H45v19.2h-4.1V200.3z"/>
		<path class="st2" d="M49.8,210L49.8,210c0-2.4,1.1-3.7,3.1-4.6c-1.5-0.9-2.4-2.1-2.4-4.2v-0.1c0-2.9,2.7-5.2,6.7-5.2
			c4,0,6.7,2.3,6.7,5.2v0.1c0,2-0.9,3.3-2.4,4.2c1.9,1,3.1,2.2,3.1,4.5v0.1c0,3.5-3.1,5.6-7.3,5.6S49.8,213.3,49.8,210z M60.4,209.7
			L60.4,209.7c0-1.5-1.4-2.4-3.3-2.4c-1.9,0-3.3,0.9-3.3,2.3v0c0,1.3,1.2,2.4,3.3,2.4C59.2,212,60.4,211,60.4,209.7z M59.9,201.7
			L59.9,201.7c0-1.2-1-2.3-2.7-2.3c-1.7,0-2.7,1-2.7,2.2v0.1c0,1.3,1.1,2.3,2.7,2.3C58.8,204,59.9,203,59.9,201.7z"/>
	</g>
	<g>
		<path class="st2" d="M351.7,207.4c-1,0.8-2.2,1.3-3.9,1.3c-4.1,0-6.8-2.3-6.8-6.1v-0.1c0-3.8,3-6.7,7.3-6.7c2.6,0,4,0.6,5.5,2.1
			c1.4,1.4,2.2,3.4,2.2,7.2v0.1c0,6.2-2.9,10.4-8.3,10.4c-2.8,0-4.6-0.9-6.3-2.3l2.2-3.2c1.4,1.1,2.6,1.6,4.2,1.6
			C350.7,211.7,351.5,209,351.7,207.4z M351.8,202.4L351.8,202.4c0-1.7-1.2-3-3.3-3c-2.1,0-3.2,1.2-3.2,2.9v0.1
			c0,1.7,1.3,2.9,3.3,2.9C350.6,205.2,351.8,204,351.8,202.4z"/>
		<path class="st2" d="M369.4,211.1h-9.3l-0.7-3l10.4-12.1h3.5v11.7h2.6v3.4h-2.6v4.1h-4V211.1z M369.4,207.7v-5.9l-5.1,5.9H369.4z"
			/>
	</g>
	<path class="st1" d="M204.8,323.8c-65.6,0-119-53.4-119-119c0-65.6,53.4-119,119-119c65.6,0,119,53.4,119,119
		C323.8,270.4,270.4,323.8,204.8,323.8 M204.8,90.2c-63.2,0-114.6,51.4-114.6,114.6c0,63.2,51.4,114.6,114.6,114.6
		c63.2,0,114.6-51.4,114.6-114.6C319.4,141.6,268,90.2,204.8,90.2"/>
	<path class="st3" d="M202.6,102.3c-58.7,0-92.6,7.7-92.6,7.7s-13.5,51.5-5.8,117.4c3.2,27.7,25.7,87.2,100.3,107.6l0,0
		c74.6-20.3,97.1-79.9,100.3-107.6c7.7-66-5.8-117.4-5.8-117.4s-33.9-7.7-92.6-7.7H202.6z"/>
	<path class="st4" d="M294.5,212.1c-0.7,20-3.8,79.8-90.1,112.7c-85.6-32-90.1-93.9-90.1-112.7H294.5z"/>
	<path class="st5" d="M291.9,208.8c2.3-49.6-6.1-89.8-6.1-89.8s-32.2-6.2-81.3-6.2c-49.2,0-81.9,6.8-81.9,6.8s-8.9,40.4-6.5,89.1
		H291.9z"/>
	<g>
		<path class="st2" d="M207.1,323L116,212.9C112.7,235.6,131.1,302.5,207.1,323z"/>
		<path class="st2" d="M143.2,212.2l84.3,101.7c8.5-4.1,14.8-8.1,20.8-12.9l-73.6-88.8H143.2z"/>
		<path class="st2" d="M201.7,212.3l62.3,75.1c6.1-6.9,11.3-13.2,15-19.8l-45.8-55.3H201.7z"/>
		<path class="st2" d="M293,212.3l-31.1-0.1l26.1,31.5C292.5,234,293,217.7,293,212.3z"/>
	</g>
	<path class="st0" d="M241.2,253.5C241.2,253.5,241.2,253.5,241.2,253.5c-0.2-0.7-0.8-1.3-1.5-1.6l-5.2-1.8c-0.5-0.2-0.9-0.1-1.4,0
		c-0.4-1.8-1.4-3.4-2.9-4.5c-0.2-0.1-0.4-0.3-0.6-0.4c-0.3-0.2-0.7-0.4-1.1-0.6c-0.7-0.3-1.4-0.5-2-0.7c-1.5-0.5-3-1-4.9-2.3
		c-1.8-1.3-2.6-2.5-3.4-3.6c-0.2-0.3-0.4-0.5-0.6-0.8c-0.5-0.8-1.2-1.5-1.9-2.1c-1.3-0.9-2.9-1.4-4.5-1.4c-0.4,0-0.7,0.1-1.1,0.1
		c0,0,0,0,0-0.1c0.1-0.6-0.1-1.3-0.4-1.8l-3.2-4.3c-0.5-0.6-1.2-1-2-1c0,0,0,0,0,0c-0.8,0-1.5,0.3-1.9,0.9l-3.4,4.3
		c-0.4,0.5-0.6,1.2-0.5,1.9l0,0c-0.3,0-0.5-0.1-0.8-0.1c-1.6,0-3.2,0.5-4.5,1.4c-0.2,0.1-0.4,0.3-0.5,0.4c-0.3,0.3-0.6,0.5-0.9,0.9
		c-0.5,0.6-0.9,1.1-1.3,1.7c-1,1.3-1.8,2.5-3.8,3.9c-1.8,1.3-3.2,1.7-4.5,2.1c-0.3,0.1-0.6,0.2-0.9,0.3c-0.9,0.2-1.8,0.6-2.6,1.2
		c-1.6,1.1-2.6,2.8-3,4.7c-0.5-0.2-1.1-0.2-1.7-0.1l-5.1,1.7c-0.7,0.2-1.3,0.8-1.6,1.5c0,0,0,0,0,0c-0.2,0.7-0.1,1.5,0.3,2.1
		l3.1,4.5c0.4,0.5,0.9,0.8,1.5,1c-0.8,1.7-1,3.8-0.4,5.6c0.1,0.2,0.2,0.4,0.2,0.6c0.1,0.4,0.3,0.8,0.6,1.2c0.4,0.6,0.8,1.2,1.2,1.7
		c1,1.3,1.9,2.5,2.6,4.8c0.7,2.1,0.6,3.5,0.6,4.9c0,0.3,0,0.7,0,1c-0.1,1,0,1.9,0.4,2.8c0.6,1.8,1.9,3.3,3.4,4.2
		c-0.2,0.4-0.4,0.8-0.3,1.2l0,5.4c0,0.8,0.4,1.5,1,1.9c0,0,0,0,0,0c0.6,0.4,1.4,0.6,2.1,0.4l5.3-1.5c0.5-0.1,0.8-0.5,1.1-0.8
		c1.6,1.5,3.8,2.2,5.9,2.1c0.4,0,0.8-0.1,1.3-0.2c0.7-0.2,1.4-0.4,2-0.6c1.5-0.5,3-1,5.4-1c2.2,0,3.5,0.5,4.9,0.9
		c0.3,0.1,0.6,0.2,0.9,0.3c0.9,0.4,1.9,0.5,2.8,0.5c1.9,0,3.8-0.8,5.2-2.1c0.3,0.4,0.6,0.6,1.1,0.8l5.2,1.6c0.7,0.2,1.5,0.1,2.2-0.3
		c0,0,0,0,0,0c0.6-0.4,1-1.1,1-1.9l0.1-5.4c0-0.4-0.1-0.8-0.3-1.2c1.6-0.9,2.9-2.4,3.4-4.2c0.1-0.2,0.1-0.4,0.2-0.7
		c0.1-0.4,0.2-0.8,0.2-1.3c0.1-0.7,0.1-1.4,0.1-2.1c0-1.6,0-3.1,0.7-5.4c0.7-2.1,1.5-3.2,2.4-4.3c0.2-0.3,0.4-0.5,0.6-0.8
		c0.6-0.7,1.1-1.6,1.4-2.5c0.6-1.9,0.4-4-0.5-5.8c0.5-0.2,0.9-0.4,1.2-0.8l3.2-4.4C241.3,255,241.5,254.3,241.2,253.5z"/>
	<path class="st6" d="M201.6,265.2c0-1.7,1.4-3,3.1-3c1.7,0,3.1,1.4,3.1,3c0,1.7-1.4,3-3.1,3C203,268.2,201.6,266.8,201.6,265.2z"/>
	<path class="st7" d="M204.6,239.4c-0.5-1.9-1.7-3.5-3.2-4.4l3.2-4.1l3,4.1C206.1,236,205.1,237.5,204.6,239.4 M180.1,257.2
		c-1.6-1.1-2.7-2.5-3.3-4.2l-4.8,1.6l2.9,4.2C176.3,257.8,178.2,257.2,180.1,257.2 M189.6,285.5c-1.5,1.2-3.2,1.8-5.1,1.8l0,5.1
		l5-1.5C188.9,289.3,188.9,287.4,189.6,285.5 M219.6,285.6c0.7,1.8,0.7,3.6,0.1,5.3l4.9,1.5l0.1-5.1
		C223,287.4,221.2,286.8,219.6,285.6 M228.9,257.3c2-0.1,3.7,0.4,5.1,1.5l3-4.1l-4.9-1.7C231.7,254.6,230.5,256.2,228.9,257.3
		 M198.4,285.7c-2.3,0-4.1-1.8-4.1-4.1c0-0.3-0.3-0.4-0.5-0.2c-1.5,1.8-2.6,3.4-2.7,5.3c-0.1,2.8,2.3,5.1,5.2,5.1c0.2,0,0.4,0,0.5,0
		c0.3,0,0.5,0,0.9-0.1c2-0.5,3.8-1.5,7.2-1.5c2.9,0,4.4,0.8,5.9,1.2c0.6,0.2,1.3,0.4,2,0.4c2.9,0,5.2-2.3,5.2-5.1
		c0-2-1.2-3.5-2.7-5.3c-0.1-0.2-0.4,0-0.4,0.2c0,2.2-1.9,4.1-4.1,4.1c-1.7,0-3.9-1.5-6.1-1.5C202.8,284.2,200.1,285.7,198.4,285.7z
		 M195.7,280.1c0,1.9,1.5,3.4,3.4,3.4c0.2,0,0.4,0,0.7-0.1c0.1,0,0.2,0,0.3-0.1c0,0,0.1,0,0.1,0c1.2-0.4,2.3-0.9,4.4-0.9
		c2.1,0,3.1,0.6,4.3,0.9c0.4,0.1,0.8,0.2,1.2,0.2c1.9,0,3.4-1.5,3.4-3.4c0-0.5-0.1-1-0.3-1.4c-0.1-0.2-0.2-0.4-0.3-0.5
		c0,0-5.8-7.9-6-8.1c-0.3-0.4-0.7-0.2-0.9-0.1c-0.3,0.1-1,0.3-1.5,0.3c-0.5,0-1.1-0.1-1.4-0.3c-0.4-0.2-0.7-0.3-0.9,0.1
		c-0.2,0.3-4.4,6-5.7,7.8C196,278.5,195.7,279.2,195.7,280.1z M222.4,277.5c-0.7,2.2-3,3.3-5.2,2.6c-0.3-0.1-0.5,0.1-0.3,0.4
		c1.3,1.9,2.4,3.5,4.3,4.2c2.7,0.9,5.7-0.6,6.5-3.3c0.1-0.2,0.1-0.3,0.1-0.5c0.1-0.2,0.1-0.5,0.2-0.8c0.2-2.1-0.3-4,0.8-7.3
		c0.9-2.7,2.1-3.9,3-5.2c0.4-0.5,0.8-1.1,1-1.7c0.9-2.7-0.6-5.7-3.3-6.5c-1.9-0.6-3.8,0.1-6,0.9c-0.2,0.1-0.2,0.3,0.1,0.4
		c2.2,0.7,3.4,3,2.7,5.2c-0.5,1.6-2.6,3.2-3.3,5.3C222.4,272.9,223,275.8,222.4,277.5z M216.2,278.3c1.8,0.6,3.8-0.4,4.4-2.2
		c0.1-0.2,0.1-0.4,0.1-0.7c0-0.1,0-0.2,0-0.3c0,0,0-0.1,0-0.1c0-1.2-0.2-2.5,0.4-4.4c0.7-2,1.5-2.8,2.2-3.8c0.2-0.3,0.4-0.7,0.6-1.1
		c0.6-1.8-0.4-3.7-2.2-4.3c-0.5-0.1-1-0.2-1.4-0.1c-0.2,0-0.4,0-0.6,0.1c0,0-9.4,3-9.7,3.1c-0.4,0.2-0.4,0.6-0.4,0.8
		c0,0.3-0.1,1-0.2,1.5c-0.1,0.4-0.4,1-0.7,1.3c-0.3,0.3-0.5,0.6-0.2,0.9c0.3,0.3,4.3,6,5.7,7.8C214.7,277.5,215.4,278,216.2,278.3z
		 M221.8,252.1c1.9,1.3,2.3,3.9,0.9,5.7c-0.2,0.2,0,0.5,0.3,0.4c2.3-0.6,4.1-1.2,5.3-2.8c1.7-2.3,1.2-5.5-1.1-7.2
		c-0.1-0.1-0.3-0.2-0.5-0.3c-0.2-0.2-0.4-0.3-0.8-0.4c-1.9-0.8-3.9-1-6.7-3c-2.3-1.7-3.1-3.2-4.1-4.5c-0.3-0.5-0.8-1-1.4-1.5
		c-2.3-1.7-5.6-1.2-7.2,1.1c-1.1,1.6-1.1,3.6-1,5.9c0,0.2,0.3,0.3,0.4,0c1.3-1.8,3.9-2.2,5.8-0.9c1.4,1,2.3,3.5,4.1,4.7
		C217.4,250.8,220.4,251.1,221.8,252.1z M220.7,258.3c1.1-1.5,0.8-3.7-0.8-4.8c-0.1-0.1-0.3-0.3-0.6-0.4c-0.1,0-0.2-0.1-0.3-0.1
		c0,0-0.1,0-0.1,0c-1.2-0.4-2.4-0.6-4.1-1.8c-1.7-1.2-2.2-2.3-2.9-3.2c-0.2-0.3-0.5-0.6-0.8-0.9c-1.5-1.1-3.7-0.8-4.8,0.8
		c-0.3,0.4-0.5,0.8-0.6,1.3c0,0.2-0.1,0.4-0.1,0.6c0,0,0,9.8,0,10.1c0,0.5,0.4,0.5,0.7,0.6c0.3,0.1,1,0.4,1.3,0.6
		c0.4,0.3,0.8,0.7,1,1c0.2,0.3,0.4,0.6,0.8,0.4c0.4-0.2,7.1-2.3,9.2-3C219.5,259.4,220.2,258.9,220.7,258.3z M197.4,244.9
		c1.8-1.3,4.4-0.9,5.8,0.9c0.2,0.2,0.5,0.2,0.5-0.1c0.1-2.3,0.1-4.3-1-5.9c-1.6-2.3-4.9-2.8-7.2-1.1c-0.2,0.1-0.3,0.2-0.4,0.3
		c-0.2,0.1-0.4,0.3-0.6,0.6c-1.4,1.6-2.2,3.4-5,5.4c-2.3,1.7-4,2-5.5,2.4c-0.6,0.2-1.3,0.4-1.8,0.8c-2.3,1.7-2.9,4.9-1.1,7.2
		c1.2,1.6,3.1,2.2,5.3,2.8c0.2,0.1,0.3-0.2,0.2-0.4c-1.3-1.8-0.9-4.4,0.9-5.7c1.4-1,4-1.1,5.8-2.4
		C194.7,248.7,196,245.9,197.4,244.9z M203,247.9c-1.1-1.5-3.3-1.9-4.8-0.8c-0.2,0.1-0.3,0.2-0.5,0.4c-0.1,0.1-0.1,0.1-0.2,0.2
		c0,0-0.1,0.1-0.1,0.1c-0.7,1-1.3,2.1-3,3.3c-1.7,1.2-2.9,1.3-4,1.8c-0.4,0.1-0.8,0.3-1.1,0.5c-1.5,1.1-1.9,3.2-0.8,4.8
		c0.3,0.4,0.7,0.7,1.1,0.9c0.2,0.1,0.3,0.2,0.5,0.2c0,0,9.4,3,9.7,3.1c0.5,0.1,0.7-0.2,0.8-0.4c0.2-0.2,0.6-0.8,1-1.1
		c0.4-0.3,0.9-0.5,1.3-0.6c0.4-0.1,0.7-0.2,0.7-0.6c0-0.4,0-7.4,0-9.6C203.7,249.4,203.5,248.6,203,247.9z M183,265.8
		c-0.7-2.2,0.5-4.5,2.6-5.2c0.3-0.1,0.3-0.4,0.1-0.5c-2.2-0.8-4.1-1.5-5.9-0.9c-2.7,0.8-4.2,3.8-3.3,6.5c0,0.2,0.1,0.3,0.2,0.5
		c0.1,0.2,0.2,0.5,0.4,0.8c1.1,1.8,2.6,3.1,3.7,6.4c0.9,2.7,0.6,4.4,0.6,6c-0.1,0.6,0,1.3,0.2,2c0.9,2.7,3.8,4.2,6.5,3.3
		c1.9-0.6,3-2.2,4.3-4.2c0.1-0.2-0.1-0.4-0.3-0.3c-2.2,0.7-4.5-0.5-5.2-2.6c-0.5-1.6,0.2-4.1-0.5-6.2
		C185.8,269.5,183.5,267.4,183,265.8z M187.5,261.5c-1.8,0.6-2.8,2.5-2.2,4.3c0,0.2,0.1,0.4,0.3,0.6c0.1,0.1,0.1,0.2,0.2,0.2
		c0,0,0,0.1,0.1,0.1c0.7,1,1.6,1.9,2.3,3.8c0.7,2,0.4,3.1,0.5,4.3c0,0.4,0,0.8,0.2,1.2c0.6,1.8,2.5,2.8,4.3,2.2
		c0.5-0.1,0.9-0.4,1.2-0.7c0.1-0.1,0.3-0.3,0.4-0.4c0,0,5.8-7.9,5.9-8.2c0.3-0.4,0-0.7-0.2-0.9c-0.2-0.2-0.6-0.8-0.7-1.3
		c-0.1-0.4-0.2-1-0.2-1.4c0-0.4,0-0.7-0.4-0.8c-0.4-0.1-7.1-2.3-9.2-3C189.2,261.3,188.4,261.2,187.5,261.5z"/>
	<path class="st6" d="M233.4,159.4l21.1-7.3c0,0-1.8,8.8-1.3,15.6c0.6,8.8,5.7,15.5,5.7,15.5l-26,9L233.4,159.4z"/>
	<g>
		<path class="st8" d="M258.9,183.2c0,0-4.6-6.6-5.4-14.3c-0.6-5.8,0-10.8,1-16.8c-0.9,4-4.3,15.3-13.8,25.8
			c-3.8,4.2-5.5,7.9-6.2,10.5l-0.4-49.7l0,0l0,0c0,0-5,1.8-5.5,1.9c-0.6,0.2-0.9,0.6-0.9,0.7c0,0.3-0.2,0.5-0.6,0.6
			c-0.4,0.1-3.3,1.2-5.3,1.8c-0.4,0.1-0.2,0.5,0,0.5c2.4-0.1,5.8-0.4,6.1-0.4c0.5-0.1,0.7-0.3,0.7-0.6c0,0,0,0,0-0.1
			c0.1-0.4,0.4-0.7,0.8-0.7c0.3,0,2.1-0.2,3.2-0.4l-0.5,53.5l2.4,0l0-3.8L258.9,183.2z"/>
	</g>
	<g>
		<path class="st6" d="M165.4,193.6c0,0-3.9-2.9-5-8.4c-1.1-5.6,1.7-8.8,1.7-8.8l25.6-8.8c0,0-1.6,5.1-0.1,10.9
			c1.9,7.3,5.8,12.2,5.8,12.2s-9.4-1.8-18.5-0.6C166.3,191.2,165.4,193.6,165.4,193.6z"/>
	</g>
	<path class="st6" d="M136,187.2c0,0,3.2-8.7,12.5-18.2c7.1-7.2,11.7-9.3,11.7-9.3s-4.1,5.9-5.8,15.6c-1.1,6,0.1,13.6,0.1,13.6
		s-4.8-1-10.3-1.6C139.6,186.8,136,187.2,136,187.2z"/>
	<path class="st8" d="M160.2,159.7c0,0-4,5.9-5.7,15.6c-1.1,6,0.1,13.6,0.1,13.6s-1.2-0.3-4-0.9
		C139.2,185.4,160.2,159.7,160.2,159.7z"/>
	<path class="st8" d="M175.2,166.7l-0.2-23l0,0l0,0l0,0l0,0c-0.5,0.2-5,1.7-5.5,1.9c-0.6,0.2-0.9,0.6-0.9,0.8c0,0.3-0.2,0.5-0.6,0.6
		c-0.4,0.1-3.3,1.1-5.3,1.8c-0.4,0.1-0.2,0.5,0,0.5c2.3-0.1,5.8-0.4,6.1-0.4c0.5-0.1,0.7-0.3,0.8-0.6c0,0,0,0,0-0.1
		c0.1-0.4,0.4-0.7,0.8-0.7c0.3,0,2-0.2,3.2-0.3l-0.2,19.6H175.2z"/>
	<path class="st8" d="M205,145.9h1.8l0-22.1h0l0,0c0,0-5,1.8-5.5,1.9c-0.6,0.2-0.9,0.6-0.9,0.7c0,0.3-0.2,0.5-0.6,0.6
		c-0.4,0.1-3.3,1.1-5.3,1.8c-0.4,0.1-0.2,0.5,0,0.5c2.4-0.1,5.8-0.4,6.1-0.4c0.5-0.1,0.7-0.3,0.8-0.6c0,0,0,0,0,0
		c0.1-0.4,0.4-0.7,0.8-0.7c0.3,0,1.9-0.2,3.1-0.3L205,145.9z"/>
	<path class="st6" d="M200.5,129c0,0,0.1,0,0.1,0c0.5-0.1,0.7-0.3,0.7-0.6c0,0,0,0,0,0c0-0.3,0.2-0.5,0.5-0.6l-0.6-1.9
		c-0.6,0.2-0.8,0.6-0.8,0.7c0,0.3-0.2,0.4-0.5,0.5L200.5,129z"/>
	<path class="st6" d="M168.7,148.8c0,0,0.1,0,0.1,0c0.5-0.1,0.7-0.3,0.7-0.6c0,0,0,0,0,0c0.1-0.3,0.2-0.5,0.5-0.6l-0.6-1.9
		c-0.6,0.2-0.8,0.6-0.8,0.7c0,0.3-0.2,0.4-0.5,0.5L168.7,148.8z"/>
	<path class="st6" d="M227.7,143.8c0,0,0.1,0,0.1,0c0.5-0.1,0.7-0.3,0.7-0.6c0,0,0,0,0,0c0.1-0.3,0.2-0.5,0.5-0.6l-0.6-1.9
		c-0.6,0.2-0.8,0.6-0.8,0.7c0,0.3-0.2,0.4-0.5,0.5L227.7,143.8z"/>
	<path class="st8" d="M193.4,190.7c0,0-4.1-6-5.7-12.4c-1.4-5.5,0-10.7,0-10.7s-2.7,9.4-9.2,14.5c-4.5,3.6-15.6,6.9-13,11.5
		c0.4-0.6,1.5-1.8,6-2.9c0.5-0.1,1.1-0.2,1.7-0.3l0,7.6l2.4,0l0-7.9C183.9,189.2,193.4,190.7,193.4,190.7z"/>
	<g>
		<path class="st6" d="M162.7,174.8c0,0-3-1.8-2.6-7.6c0.4-6,3.4-8.6,3.4-8.8l19.9-6.8c0,0-1.5,3-0.4,7.5c1.2,5.4,4.7,8.5,4.7,8.5
			s-10,0.1-19,3.2C164.3,172.3,162.7,174.8,162.7,174.8z"/>
	</g>
	<g>
		<path class="st8" d="M174.5,162.3c5.7-4.7,8.8-10.7,8.8-10.7s-0.8,3.8-0.2,7.2c1.1,5.8,4.5,8.8,4.5,8.8s-8.1,0.1-16.8,2.6
			c-5.8,1.6-7.6,3.9-8.1,4.7C160.8,170.5,168.7,167.1,174.5,162.3z"/>
	</g>
	<g>
		<path class="st6" d="M197.2,195.1c0,0-5.5-4.1-6.8-11.8c-1.1-6.1,3-10.5,3-10.5l31.1-10.7c0,0-1.7,6.9-0.1,13.5
			c1.8,7.4,8.6,16.6,8.6,16.6s-12.9-3.7-24.1-2.3C198.2,191.3,197.2,195.1,197.2,195.1z"/>
	</g>
	<g>
		<path class="st6" d="M190.9,145.8c-0.2-4.7,3.1-8.5,3.2-8.7l22.3-7.8c0,0-1.5,3.5-1.1,6.5c0.7,5.7,3.9,8.7,3.9,8.7
			s-8.8-0.5-19.1,3.1c-5.7,2-6.3,4.7-6.3,4.7S191.1,151.6,190.9,145.8z"/>
	</g>
	<g>
		<path class="st8" d="M208.5,139.8c4-3.5,7.9-10.4,7.9-10.4s-1.5,3.5-1.1,6.5c0.7,5.7,3.9,8.7,3.9,8.7s-9.5-0.1-18.6,3.1
			c-3.9,1.4-6.4,3.5-6.7,4.7C192.6,148,203,144.6,208.5,139.8z"/>
	</g>
	<g>
		<path class="st6" d="M194.1,171.5c0,0-3.2-3.7-3.8-9.5c-0.6-6,2.9-8.4,3.2-8.6l25.8-8.9c0,0-0.7,1.9-0.1,7.1
			c0.6,4.4,4.9,10.4,4.9,10.4s-13.8,0.4-22.3,3.7C196.4,167.8,194.1,171.5,194.1,171.5z"/>
	</g>
	<g>
		<path class="st8" d="M211.2,156.6c5.6-4.8,8.1-12,8.1-12s-0.7,4.1,0,7.3c1.3,5.6,5.3,10.3,5.3,10.3s-12,0.2-20.7,3.1
			c-5.7,1.9-9.2,5.3-9.7,6.3C192.9,166.7,205.6,161.4,211.2,156.6z"/>
	</g>
	<g>
		<path class="st8" d="M233.5,192.7c0,0-7-9.1-9.1-17.1c-1.3-5.3-0.3-11.3,0.1-13.4c-0.8,2.8-3.6,11.9-10.5,18.3
			c-6.6,6.1-19.6,9-16.8,14.7c0.5-0.9,2-3.1,7.3-4.4l-0.1,7.3l2.5,0l0-7.8C218.4,188.5,233.5,192.7,233.5,192.7z"/>
	</g>
	<path class="st9" d="M245.5,209.8c1.6-0.3,3.2-0.7,5.6-1.3c-0.1-0.1-0.3-0.2-0.4-0.3c-2.6-2.9-2.2-6-0.6-7.5
		c5.8-5.4,5.7-9.4,5.7-9.4s-14.1,2.9-32.7,3.9c-1.2,0.1-5.5,2-6.8,2c-2.6,0.1-5.2,0.2-7.9,0.2c-35.1,0.3-44.9-2.2-56.4-4.3
		c-11.7-2.2-16.8-4.5-16.8-4.5l-0.4,1.2c0,0,9.2,3.6,15.8,6.8c1.4,0.7,6.9,8.9,8.7,11.7h-41.7c-2.3-47.8,6.9-86.9,6.9-86.9
		s31.9-6.8,79.9-6.8l0-5.1c-50.9,0-84.8,7.2-84.8,7.2s-14.8,52.2-7,114.4c3.3,25.9,24.7,74.4,91.6,96.9l2.9-4.1l-2.9-4.1
		c-63-21.1-81.4-63.8-84.6-88.1c-0.7-5.4-1.2-10.8-1.6-16h86.5v-7.3h-44.4c1-3.2,4.1-4,8-3.1c4,1,8,2,11.8,1.8c9.5-0.5,8.1-3,9-3
		c9.8,0.6,13.5,3,22,2.8c7.8-0.1,10.5-2.2,11.2-2.2c9.5-0.1,13.1,4.3,22.6,5.1C245,209.8,245.3,209.8,245.5,209.8z"/>
	<path class="st10" d="M289.1,116.7c0,0-33.8-7.2-84.7-7.2l0,5.1c48,0,79.8,6.8,79.8,6.8s9.3,39.1,6.9,86.9h-41.8
		c-3.3-3.2-1.4-7.4-0.3-8.4c4.9-4.4,4.9-7.4,4.9-7.4s-11.3,2.8-29.9,3.6c-1.2,0-6.4,2.4-7.7,2.4c-2.6,0.1-6.2,0.2-8.9,0.2
		c-24.2,0-36.1-0.5-57.1-5c0.4,0.5,0.6,0.7,1,1.3c0.1,0.2,9.2,2.5,9.3,2.7c1.4,1.9,3.2,3.2,5.4,4.4c3.4,1.8,8.4,3.3,12.5,3.6
		c9.5,0.6,7.7-3,8.6-3c9.7-0.2,16,3.3,24.5,3.2c7.8-0.1,8-2.6,8.8-2.6c7.7-0.4,15.5,2.9,22.2,5.1h-38.2v7.3h86.2
		c-0.4,5.3-0.9,10.6-1.6,16c-3.2,24.4-21.6,67-84.6,88.1v8.2c66.9-22.5,88.4-70.9,91.6-96.9C303.9,168.9,289.1,116.7,289.1,116.7z"
		/>
	<g>
		<polygon class="st0" points="48.2,139.2 51.7,132.5 67.5,131.4 59.5,117.7 63,111.1 91.1,125.9 87.9,132 69.5,122.4 77.4,136.6 
			77.3,136.7 61.3,138.3 79.5,147.9 76.3,154 		"/>
		<path class="st0" d="M80.3,89.2l4.4-4.7l32.6,12l-5,5.3l-7.2-2.8l-9.2,9.8l3.2,7l-4.9,5.2L80.3,89.2z M99,96.7l-10.4-4l4.6,10.1
			L99,96.7z"/>
		<polygon class="st0" points="105.5,66.1 111,62.8 133.9,71.8 123.8,55.1 129.7,51.5 146.1,78.6 141,81.7 117.4,72.4 127.9,89.7 
			122,93.3 		"/>
		<path class="st0" d="M148.2,60.6L148.2,60.6c-2.5-8.8,1.9-17.8,11.3-20.5c5.7-1.7,9.8-0.7,13.4,1.2l-2.9,6.2
			c-3-1.5-5.7-2.1-8.8-1.2c-5.1,1.5-7.6,6.8-6.1,12.1l0,0.1c1.5,5.2,6.4,8.5,11.6,7c3.5-1,5.2-3,7-5.9l5.5,3.1
			c-2.2,4.3-5.1,7.4-10.9,9.1C159.4,74.4,150.7,69.4,148.2,60.6z"/>
		<polygon class="st0" points="186.3,35.1 193.2,34.9 193.6,47.5 206.4,47.2 206.1,34.6 213.1,34.4 213.9,66.2 206.9,66.4 
			206.6,53.6 193.7,54 194.1,66.7 187.1,66.9 		"/>
		<path class="st0" d="M254.2,70.5l5.8-2.8c1.6,3.3,3.7,6,7,7.5c2.6,1.2,4.6,0.9,5.4-0.8l0-0.1c0.8-1.6,0.1-2.9-4.1-6.3
			c-5.1-4.2-8.1-7.5-5.5-13.2l0-0.1c2.4-5.2,8.2-6.7,14.1-4c4.2,1.9,7.2,4.9,9,8.6l-5.5,3.3c-1.7-3-3.8-5.2-6.2-6.3
			c-2.4-1.1-4.2-0.6-4.9,0.8l0,0.1c-0.9,1.9,0.1,3.1,4.5,6.7c5.1,4.2,7.5,7.9,5.1,12.9l0,0.1c-2.6,5.7-8.5,6.9-14.7,4.1
			C260,78.8,256.3,75.2,254.2,70.5z"/>
		<polygon class="st0" points="300.6,72.4 292.9,66.5 296.8,61.4 317.7,77.3 313.8,82.5 306.1,76.6 290.8,96.7 285.2,92.5 		"/>
		<path class="st0" d="M350.8,117.5l6.5,13c1.8,3.6,2.2,6.9,1.3,9.7c-0.8,2.4-2.6,4.3-5.3,5.7l-0.1,0c-4.6,2.3-8.7,1.3-11.9-1.7
			l-6.7,12l-3.7-7.3l6-10.7l-2.5-4.9l-9.1,4.6l-3.1-6.2L350.8,117.5z M343.3,137c1.5,3,4,4,6.4,2.8l0.1,0c2.7-1.3,3.1-3.9,1.6-6.9
			l-3.1-6.2l-8.1,4.1L343.3,137z"/>
		<polygon class="st0" points="233,56.4 244.7,58.9 248,53.3 234.4,50.3 235.7,44 252.3,47.6 253.7,41.6 230.2,36.5 223.5,67.5 
			247.2,72.7 248.5,66.6 231.6,62.9 		"/>
		<polygon class="st0" points="327.3,86.8 302.9,107.2 318.5,125.7 323.2,121.7 312.2,108.5 317.3,104.2 325.1,113.5 331.4,111.4 
			322.1,100.2 327,96.1 337.9,109.1 342.7,105.1 		"/>
		<g>
			<path class="st0" d="M150.9,357.6L150.9,357.6c0-9.3,6.9-16.8,16.9-16.8c6.1,0,9.7,2,12.8,5l-4.5,5.2c-2.5-2.3-5-3.6-8.3-3.6
				c-5.5,0-9.4,4.5-9.4,10.1v0.1c0,5.5,3.8,10.2,9.4,10.2c3.7,0,6-1.5,8.5-3.8l4.5,4.6c-3.3,3.6-7,5.8-13.3,5.8
				C158,374.2,150.9,366.8,150.9,357.6z"/>
			<path class="st0" d="M187.7,341.3h7.1v32.3h-7.1V341.3z"/>
			<path class="st0" d="M211.3,347.9h-9.8v-6.6h26.8v6.6h-9.8v25.8h-7.1V347.9z"/>
			<path class="st0" d="M243.7,360.9l-12.4-19.6h8.3l7.7,13l7.8-13h8.1l-12.4,19.4v12.9h-7.1V360.9z"/>
		</g>
	</g>
</g>
</svg>
