<?xml version="1.0" encoding="UTF-8" standalone="no"?>
<svg
   xmlns:dc="http://purl.org/dc/elements/1.1/"
   xmlns:cc="http://creativecommons.org/ns#"
   xmlns:rdf="http://www.w3.org/1999/02/22-rdf-syntax-ns#"
   xmlns:svg="http://www.w3.org/2000/svg"
   xmlns="http://www.w3.org/2000/svg"
   xmlns:sodipodi="http://sodipodi.sourceforge.net/DTD/sodipodi-0.dtd"
   xmlns:inkscape="http://www.inkscape.org/namespaces/inkscape"
   version="1.1"
   id="svg6"
   sodipodi:docname="premier-league.svg"
   width="4096"
   height="4096"
   inkscape:version="0.92.2 (5c3e80d, 2017-08-06)"
   inkscape:export-filename="G:\Users\suitedoalex\sites\premier-league-0.png"
   inkscape:export-xdpi="96"
   inkscape:export-ydpi="96">
  <metadata
     id="metadata12">
    <rdf:RDF>
      <cc:Work
         rdf:about="">
        <dc:format>image/svg+xml</dc:format>
        <dc:type
           rdf:resource="http://purl.org/dc/dcmitype/StillImage" />
        <dc:title></dc:title>
      </cc:Work>
    </rdf:RDF>
  </metadata>
  <defs
     id="defs10" />
  <sodipodi:namedview
     pagecolor="#ffffff"
     bordercolor="#666666"
     borderopacity="1"
     objecttolerance="10"
     gridtolerance="10"
     guidetolerance="10"
     inkscape:pageopacity="0"
     inkscape:pageshadow="2"
     inkscape:window-width="1600"
     inkscape:window-height="837"
     id="namedview8"
     showgrid="false"
     inkscape:zoom="0.044194174"
     inkscape:cx="5934.4709"
     inkscape:cy="2891.6497"
     inkscape:window-x="-8"
     inkscape:window-y="-8"
     inkscape:window-maximized="1"
     inkscape:current-layer="svg6" />
  <path
     d="m 6939.9591,2449.0572 c 0,0 246.0862,-316.9292 333.7078,-514.5438 l -76.4358,-18.6429 c 0,0 208.8004,-328.1149 277.7791,-585.3869 H 4564.8546 v 1118.5736 z"
     id="path2"
     style="fill:#05f0ff;fill-opacity:1;stroke-width:18.64289284"
     inkscape:connector-curvature="0"
     inkscape:export-filename="G:\Users\suitedoalex\sites\premier-league-3.png"
     inkscape:export-xdpi="71.253929"
     inkscape:export-ydpi="71.253929" />
  <path
     d="m 4823.9908,1546.7412 c 37.2858,16.7786 59.6572,37.2858 61.5215,42.8786 -1.8643,-9.3214 -7.4571,-54.0643 -13.05,-82.0287 20.5072,14.9143 68.9787,48.4715 87.6216,59.6573 7.4572,-20.5072 29.8286,-87.6216 29.8286,-87.6216 0,0 42.8787,67.1144 48.4715,76.4358 7.4572,-7.4571 57.793,-61.5215 68.9788,-76.4358 1.8642,31.6929 5.5928,76.4358 7.4571,83.893 1.8643,-5.5929 20.5072,-31.6929 52.2001,-52.2001 -14.9143,27.9643 -20.5072,61.5215 -22.3715,95.0787 -31.6929,-7.4571 -61.5215,-14.9143 -98.8073,-14.9143 -65.2501,0 -126.7717,16.7786 -178.9718,48.4716 -9.3214,-33.5573 -24.2357,-68.9788 -42.8786,-93.2145 z m 497.7652,572.3368 -29.8286,-33.5572 c -7.4572,87.6216 -48.4715,158.4646 -128.636,210.6647 l -13.05,-48.4715 c -65.2501,48.4715 -178.9718,76.4358 -274.0505,22.3714 13.05,-61.5215 22.3714,-124.9073 0,-199.4789 -52.2001,83.893 -102.5359,117.4502 -102.5359,117.4502 -35.4215,-61.5215 -33.5572,-182.7003 -20.5072,-218.1218 l -57.793,22.3714 c 0,-42.8786 29.8286,-128.6359 72.7073,-177.1075 l -37.2858,-7.4571 c 24.2358,-50.3358 61.5216,-96.9431 111.8574,-132.3646 -14.9143,22.3715 -14.9143,76.4359 27.9643,96.9431 -16.7786,-31.6929 -20.5072,-67.1144 -1.8643,-89.4859 20.5072,-20.5072 48.4715,-13.05 67.1144,1.8643 -7.4571,-16.7786 -22.3714,-39.1501 -48.4715,-39.1501 48.4715,-24.2357 102.5359,-39.1501 158.4646,-39.1501 9.3215,0 20.5072,0 33.5572,1.8643 16.7786,7.4572 42.8787,31.693 52.2001,46.6073 0,0 0,-16.7786 -7.4571,-39.1501 61.5215,14.9143 91.3501,42.8786 104.4002,52.2001 1.8642,27.9643 9.3214,44.7429 20.5071,68.9787 -20.5071,-22.3715 -72.7072,-59.6573 -96.943,-67.1144 0,0 -1.8643,22.3715 -9.3215,35.4215 -48.4715,-35.4215 -72.7072,-44.743 -72.7072,-44.743 -52.2001,7.4572 -89.4859,29.8287 -106.2645,46.6073 l 16.7786,14.9143 c -33.5572,9.3214 -52.2001,37.2858 -52.2001,37.2858 l 29.8286,5.5928 c 0,0 -1.8643,33.5572 39.1501,52.2001 35.4215,20.5072 89.4859,-5.5928 136.0931,14.9144 -33.5572,-37.2858 -52.2001,-52.2002 -52.2001,-52.2002 0,0 -13.05,-1.8642 -22.3715,-1.8642 -9.3214,0 -27.9643,1.8642 -46.6072,-5.5929 -7.4572,-5.5929 -20.5072,-9.3215 -27.9643,-14.9143 0,0 22.3714,-22.3715 54.0643,-29.8287 0,0 29.8287,7.4572 52.2001,24.2358 16.7787,-14.9143 31.693,-14.9143 31.693,-14.9143 0,0 -16.7786,14.9143 -9.3215,33.5572 22.3715,20.5072 48.4715,50.3358 48.4715,50.3358 27.9644,-14.9143 82.0288,-9.3214 91.3502,1.8643 -14.9143,-20.5072 -35.4215,-35.4215 -50.3358,-48.4715 -1.8643,-7.4572 -20.5072,-31.6929 -22.3715,-35.4215 0,0 16.7786,7.4571 33.5572,20.5072 5.5929,-7.4572 13.0501,-13.0501 22.3715,-14.9143 13.05,9.3214 14.9143,24.2357 13.05,27.9643 -7.4571,7.4571 -9.3214,7.4571 -9.3214,7.4571 l 27.9643,29.8287 1.8643,-20.5072 c 61.5216,93.2145 96.9431,197.6147 52.2001,329.9792 z m -119.3145,-195.7504 v -48.4715 c 0,0 -20.5072,-7.4572 -44.7429,-24.2358 -46.6073,7.4572 -98.8074,50.3359 -98.8074,50.3359 0,0 20.5072,35.4215 39.1501,72.7072 37.2858,5.5929 87.6216,-35.4215 104.4002,-50.3358 z m 44.7429,83.893 c 0,0 -5.5928,-20.5071 -20.5071,-37.2857 h -35.4215 c 0,0 -48.4716,42.8786 -76.4359,42.8786 0,0 16.7786,29.8286 24.2358,46.6072 16.7786,-5.5928 44.7429,-16.7786 54.0644,-29.8286 0,0 7.4571,24.2358 7.4571,50.3358 18.6429,-9.3214 39.1501,-31.6929 46.6072,-72.7073 z m 14.9144,-152.8717 c -20.5072,14.9143 -33.5572,22.3715 -33.5572,22.3715 v 48.4715 c 13.05,14.9143 24.2357,24.2358 35.4215,48.4715 18.6428,-33.5572 14.9143,-78.3001 -1.8643,-119.3145 z m 188.2932,41.0144 v -275.9148 h 89.4859 c 57.7929,0 98.8073,33.5572 98.8073,91.3501 0,57.793 -42.8787,91.3502 -98.8073,91.3502 h -33.5572 v 89.4859 c 1.8643,3.7286 -55.9287,3.7286 -55.9287,3.7286 z m 55.9287,-141.686 h 31.6929 c 27.9643,0 48.4715,-14.9143 48.4715,-42.8787 0,-27.9643 -20.5072,-42.8786 -48.4715,-42.8786 h -31.6929 z m 851.9802,443.7009 c -39.1501,0 -89.4859,-22.3715 -89.4859,-89.4859 v -96.9431 h 48.4715 v 91.3502 c 0,31.6929 14.9143,46.6072 39.1501,46.6072 22.3715,0 39.1501,-16.7786 39.1501,-46.6072 v -91.3502 h 48.4715 v 96.9431 c 1.8643,65.2501 -46.6072,89.4859 -85.7573,89.4859 m -434.3794,0 c -48.4716,0 -89.4859,-44.743 -89.4859,-95.0788 0,-50.3358 42.8786,-91.3502 89.4859,-91.3502 27.9643,0 46.6072,9.3215 54.0644,27.9644 l 7.4571,-24.2358 h 44.743 v 180.8361 h -44.743 l -5.5929,-26.1001 c -9.3214,14.9143 -29.8286,27.9644 -55.9286,27.9644 m 11.1857,-143.5503 c -27.9643,0 -48.4715,20.5072 -48.4715,48.4715 0,27.9643 20.5072,48.4715 48.4715,48.4715 27.9643,0 48.4715,-20.5072 48.4715,-48.4715 0,-27.9643 -20.5072,-48.4715 -48.4715,-48.4715 m 329.9792,-343.0293 h 48.4715 v 180.8361 h -48.4715 z m 27.9644,-24.2357 c -20.5072,0 -31.693,-14.9143 -31.693,-31.6929 0,-20.5072 14.9143,-31.693 31.693,-31.693 20.5071,0 31.6929,14.9144 31.6929,31.693 -1.8643,18.6429 -14.9143,31.6929 -31.6929,31.6929 m -104.4003,100.6716 c 0,-20.5072 -9.3214,-31.6929 -29.8286,-31.6929 -20.5072,0 -29.8286,13.05 -29.8286,33.5572 v 106.2645 h -48.4715 v -109.9931 c 0,-20.5072 -9.3215,-31.6929 -29.8287,-31.6929 -20.5071,0 -29.8286,13.05 -29.8286,33.5572 v 106.2645 h -48.4715 v -180.8361 h 44.7429 l 7.4572,24.2358 c 0,0 9.3214,-29.8286 46.6072,-29.8286 20.5072,0 39.1501,7.4571 50.3358,27.9643 l 1.8643,1.8643 1.8643,-1.8643 c 20.5072,-24.2358 39.1501,-27.9643 52.2001,-27.9643 39.1501,0 65.2501,29.8286 65.2501,68.9787 v 117.4502 h -48.4715 v -109.9931 c 1.8643,3.7286 -5.5929,3.7286 -5.5929,3.7286 z m 352.3507,108.1288 v -180.8361 h 44.743 l 7.4571,27.9644 c 7.4572,-16.7786 24.2358,-29.8287 46.6073,-29.8287 5.5928,0 9.3214,0 14.9143,1.8643 v 48.4715 c -7.4572,-1.8642 -13.05,-1.8642 -20.5072,-1.8642 -24.2358,0 -42.8787,14.9143 -42.8787,44.7429 v 89.4859 z m -885.5374,0 v -180.8361 h 44.743 l 7.4571,27.9644 c 7.4572,-16.7786 24.2358,-29.8287 46.6072,-29.8287 5.5929,0 9.3215,0 14.9144,1.8643 v 48.4715 c -9.3215,-3.7285 -14.9144,-3.7285 -22.3715,-3.7285 -24.2358,0 -42.8787,14.9143 -42.8787,44.7429 v 89.4859 z m -205.0718,298.2863 v -270.322 h 52.2001 v 218.1219 h 117.4502 v 50.3358 z m 277.7791,3.7286 c -54.0644,0 -96.9431,-39.1501 -96.9431,-95.0788 0,-50.3358 37.2858,-96.943 96.9431,-96.943 44.7429,0 89.4859,33.5572 89.4859,95.0787 0,5.5929 0,9.3215 -1.8643,20.5072 h -132.3646 c 5.5929,20.5072 22.3715,33.5572 46.6073,33.5572 20.5072,0 35.4215,-7.4572 48.4715,-20.5072 l 31.6929,31.6929 c -20.5072,18.6429 -50.3358,31.693 -82.0287,31.693 m -1.8643,-149.1432 c -20.5072,0 -39.1501,13.05 -44.7429,31.6929 h 83.893 c -1.8643,-16.7786 -18.6429,-31.6929 -39.1501,-31.6929 m 835.2016,149.1432 c -54.0644,0 -96.943,-39.1501 -96.943,-95.0788 0,-50.3358 37.2858,-96.943 96.943,-96.943 44.743,0 89.4859,33.5572 89.4859,95.0787 0,5.5929 0,9.3215 -1.8643,20.5072 h -134.2288 c 5.5928,20.5072 22.3714,33.5572 46.6072,33.5572 20.5072,0 35.4215,-7.4572 48.4715,-20.5072 l 31.693,31.6929 c -20.5072,18.6429 -48.4716,31.693 -80.1645,31.693 m -1.8643,-149.1432 c -20.5072,0 -39.1501,13.05 -44.7429,31.6929 h 83.893 c -1.8643,-16.7786 -16.7786,-31.6929 -39.1501,-31.6929 m -126.7717,-151.0074 c -54.0643,0 -96.943,-39.1501 -96.943,-95.0788 0,-50.3358 37.2858,-96.943 96.943,-96.943 44.743,0 89.4859,33.5572 89.4859,95.0787 0,5.5929 0,9.3215 -1.8643,20.5072 h -134.2288 c 5.5929,20.5072 22.3715,33.5572 46.6072,33.5572 20.5072,0 35.4215,-7.4571 48.4716,-20.5072 l 31.6929,31.693 c -20.5072,18.6429 -50.3358,31.6929 -80.1645,31.6929 m -3.7285,-147.2789 c -20.5072,0 -39.1501,13.05 -44.743,31.6929 h 83.893 c -1.8642,-16.7786 -18.6428,-31.6929 -39.15,-31.6929 m -563.0154,147.2789 c -54.0644,0 -96.943,-39.1501 -96.943,-95.0788 0,-50.3358 37.2857,-96.943 96.943,-96.943 44.7429,0 89.4859,33.5572 89.4859,95.0787 0,5.5929 0,9.3215 -1.8643,20.5072 h -134.2288 c 5.5928,20.5072 22.3714,33.5572 46.6072,33.5572 20.5072,0 35.4215,-7.4571 48.4715,-20.5072 l 31.6929,31.693 c -22.3714,18.6429 -48.4715,31.6929 -80.1644,31.6929 m -1.8643,-147.2789 c -20.5072,0 -39.1501,13.05 -44.7429,31.6929 h 83.893 c -1.8643,-16.7786 -20.5072,-31.6929 -39.1501,-31.6929 m 285.2363,303.8792 c -27.9644,0 -48.4715,20.5072 -48.4715,48.4715 0,27.9643 20.5071,48.4715 48.4715,48.4715 27.9643,0 48.4715,-20.5072 48.4715,-48.4715 0,-27.9643 -20.5072,-48.4715 -48.4715,-48.4715 m 46.6072,-20.5072 7.4572,-22.3715 h 44.7429 v 171.5146 c 0,33.5572 -9.3214,57.793 -31.6929,76.4359 -16.7786,13.05 -39.1501,22.3715 -67.1144,22.3715 -37.2858,0 -65.2502,-13.0501 -87.6216,-33.5572 l 29.8286,-39.1501 c 14.9143,13.05 31.6929,24.2358 54.0644,24.2358 37.2858,0 52.2001,-20.5072 52.2001,-46.6073 v -13.05 c -14.9143,16.7786 -33.5572,22.3715 -50.3358,22.3715 -50.3358,0 -91.3502,-42.8787 -91.3502,-95.0788 0,-52.2001 42.8787,-91.3502 91.3502,-91.3502 18.6429,-1.8643 37.2858,9.3215 48.4715,24.2358"
     id="path4"
     inkscape:connector-curvature="0"
     style="fill:#360c3a;stroke-width:18.64289284"
     inkscape:export-filename="G:\Users\suitedoalex\sites\premier-league-3.png"
     inkscape:export-xdpi="71.253929"
     inkscape:export-ydpi="71.253929" />
  <path
     d="m 6938.395,1170.9135 c 0,0 246.0862,-316.92922 333.7078,-514.54389 l -76.4359,-18.64289 c 0,0 208.8004,-328.11492 277.7791,-585.386842 H 4563.2904 V 1170.9135 Z"
     id="path2-1"
     style="fill:#e7ee00;fill-opacity:1;stroke-width:18.64289284"
     inkscape:connector-curvature="0"
     inkscape:export-filename="G:\Users\suitedoalex\sites\premier-league-1.png"
     inkscape:export-xdpi="71.253929"
     inkscape:export-ydpi="71.253929" />
  <path
     d="m 4822.4266,268.59744 c 37.2858,16.7786 59.6573,37.28578 61.5216,42.87865 -1.8643,-9.32145 -7.4572,-54.06439 -13.05,-82.02873 20.5071,14.91432 68.9787,48.47152 87.6216,59.65726 7.4571,-20.50718 29.8286,-87.6216 29.8286,-87.6216 0,0 42.8786,67.11442 48.4715,76.43586 7.4572,-7.45715 57.793,-61.52154 68.9787,-76.43586 1.8643,31.69292 5.5929,76.43586 7.4572,83.89302 1.8643,-5.59287 20.5072,-31.69292 52.2001,-52.2001 -14.9143,27.96434 -20.5072,61.52155 -22.3715,95.07875 -31.6929,-7.45715 -61.5215,-14.91431 -98.8073,-14.91431 -65.2502,0 -126.7717,16.7786 -178.9718,48.47152 -9.3215,-33.55721 -24.2358,-68.9787 -42.8787,-93.21446 z m 497.7653,572.33681 -29.8286,-33.5572 c -7.4572,87.62159 -48.4716,158.46459 -128.636,210.66465 l -13.05,-48.47148 c -65.2502,48.47148 -178.9718,76.43588 -274.0506,22.37147 13.0501,-61.52155 22.3715,-124.90739 0,-199.47896 -52.2001,83.89302 -102.5359,117.45023 -102.5359,117.45023 -35.4215,-61.52155 -33.5572,-182.70035 -20.5072,-218.12185 l -57.7929,22.37147 c 0,-42.87865 29.8286,-128.63596 72.7073,-177.10748 l -37.2858,-7.45716 c 24.2357,-50.33581 61.5215,-96.94304 111.8573,-132.36454 -14.9143,22.37147 -14.9143,76.43586 27.9644,96.94304 -16.7786,-31.69292 -20.5072,-67.11441 -1.8643,-89.48588 20.5072,-20.50719 48.4715,-13.05003 67.1144,1.86429 -7.4572,-16.77861 -22.3715,-39.15008 -48.4715,-39.15008 48.4715,-24.23576 102.5359,-39.15008 158.4646,-39.15008 9.3214,0 20.5071,0 33.5572,1.86429 16.7786,7.45716 42.8786,31.69292 52.2001,46.60724 0,0 0,-16.77861 -7.4572,-39.15008 61.5216,14.91432 91.3502,42.87865 104.4002,52.2001 1.8643,27.96434 9.3215,44.74294 20.5072,68.97871 -20.5072,-22.37148 -72.7073,-59.65726 -96.943,-67.11442 0,0 -1.8643,22.37147 -9.3215,35.4215 -48.4715,-35.4215 -72.7073,-44.74295 -72.7073,-44.74295 -52.2001,7.45716 -89.4859,29.82863 -106.2645,46.60724 l 16.7786,14.91431 c -33.5572,9.32145 -52.2001,37.28579 -52.2001,37.28579 l 29.8287,5.59287 c 0,0 -1.8643,33.5572 39.15,52.2001 35.4215,20.50718 89.4859,-5.59287 136.0932,14.91431 -33.5572,-37.28579 -52.2001,-52.2001 -52.2001,-52.2001 0,0 -13.0501,-1.86429 -22.3715,-1.86429 -9.3215,0 -27.9643,1.86429 -46.6072,-5.59287 -7.4572,-5.59287 -20.5072,-9.32144 -27.9644,-14.91431 0,0 22.3715,-22.37147 54.0644,-29.82863 0,0 29.8286,7.45716 52.2001,24.23576 16.7786,-14.91431 31.6929,-14.91431 31.6929,-14.91431 0,0 -16.7786,14.91431 -9.3214,33.5572 22.3715,20.50719 48.4715,50.33581 48.4715,50.33581 27.9643,-14.91431 82.0287,-9.32144 91.3502,1.86429 -14.9143,-20.50718 -35.4215,-35.42149 -50.3358,-48.47152 -1.8643,-7.45716 -20.5072,-31.69292 -22.3715,-35.42149 0,0 16.7786,7.45715 33.5572,20.50718 5.5929,-7.45716 13.05,-13.05003 22.3715,-14.91432 13.05,9.32145 14.9143,24.23576 13.05,27.96434 -7.4572,7.45716 -9.3214,7.45716 -9.3214,7.45716 l 27.9643,29.82863 1.8643,-20.50718 c 61.5215,93.21446 96.943,197.61466 52.2001,329.9792 z M 5200.8774,645.18388 v -48.47153 c 0,0 -20.5072,-7.45715 -44.743,-24.23576 -46.6072,7.45716 -98.8073,50.33581 -98.8073,50.33581 0,0 20.5072,35.4215 39.1501,72.70729 37.2858,5.59287 87.6216,-35.4215 104.4002,-50.33581 z m 44.7429,83.89302 c 0,0 -5.5929,-20.50719 -20.5072,-37.28579 h -35.4215 c 0,0 -48.4715,42.87865 -76.4358,42.87865 0,0 16.7786,29.82863 24.2357,46.60724 16.7786,-5.59287 44.743,-16.77861 54.0644,-29.82863 0,0 7.4572,24.23576 7.4572,50.33581 18.6429,-9.32145 39.1501,-31.69292 46.6072,-72.70728 z m 14.9143,-152.87173 c -20.5072,14.91432 -33.5572,22.37147 -33.5572,22.37147 v 48.47153 c 13.05,14.91431 24.2358,24.23576 35.4215,48.47152 18.6429,-33.55721 14.9143,-78.30015 -1.8643,-119.31452 z m 188.2932,41.01437 V 341.30472 h 89.4859 c 57.793,0 98.8074,33.55721 98.8074,91.35018 0,57.79296 -42.8787,91.35017 -98.8074,91.35017 h -33.5572 v 89.48589 c 1.8643,3.72858 -55.9287,3.72858 -55.9287,3.72858 z m 55.9287,-141.68599 h 31.6929 c 27.9644,0 48.4716,-14.91431 48.4716,-42.87865 0,-27.96434 -20.5072,-42.87866 -48.4716,-42.87866 h -31.6929 z m 851.9802,443.70085 c -39.15,0 -89.4858,-22.37147 -89.4858,-89.48588 v -96.94305 h 48.4715 v 91.35018 c 0,31.69292 14.9143,46.60723 39.15,46.60723 22.3715,0 39.1501,-16.7786 39.1501,-46.60723 v -91.35018 h 48.4715 v 96.94305 c 1.8643,65.25012 -46.6072,89.48588 -85.7573,89.48588 m -434.3794,0 c -48.4715,0 -89.4859,-44.74294 -89.4859,-95.07875 0,-50.33581 42.8787,-91.35018 89.4859,-91.35018 27.9644,0 46.6073,9.32145 54.0644,27.96434 l 7.4572,-24.23576 h 44.7429 v 180.83607 h -44.7429 l -5.5929,-26.10005 c -9.3214,14.91431 -29.8286,27.96433 -55.9287,27.96433 m 11.1858,-143.55027 c -27.9644,0 -48.4716,20.50718 -48.4716,48.47152 0,27.96434 20.5072,48.47152 48.4716,48.47152 27.9643,0 48.4715,-20.50718 48.4715,-48.47152 0,-27.96434 -20.5072,-48.47152 -48.4715,-48.47152 M 6263.5223,432.6549 h 48.4715 v 180.83606 h -48.4715 z m 27.9643,-24.23577 c -20.5072,0 -31.6929,-14.91431 -31.6929,-31.69291 0,-20.50719 14.9143,-31.69292 31.6929,-31.69292 20.5072,0 31.6929,14.91431 31.6929,31.69292 -1.8643,18.64289 -14.9143,31.69291 -31.6929,31.69291 m -104.4002,100.67163 c 0,-20.50719 -9.3214,-31.69292 -29.8286,-31.69292 -20.5072,0 -29.8286,13.05002 -29.8286,33.55721 v 106.26449 h -48.4716 V 507.22647 c 0,-20.50718 -9.3214,-31.69292 -29.8286,-31.69292 -20.5072,0 -29.8286,13.05002 -29.8286,33.55721 v 106.26449 h -48.4715 V 434.51918 h 44.7429 l 7.4572,24.23577 c 0,0 9.3214,-29.82863 46.6072,-29.82863 20.5072,0 39.1501,7.45715 50.3358,27.96434 l 1.8643,1.86429 1.8643,-1.86429 c 20.5072,-24.23576 39.15,-27.96434 52.2001,-27.96434 39.1501,0 65.2501,29.82863 65.2501,68.9787 v 117.45023 h -48.4715 V 505.36218 c 1.8643,3.72858 -5.5929,3.72858 -5.5929,3.72858 z m 352.3507,108.12878 V 436.38347 h 44.7429 l 7.4572,27.96434 c 7.4571,-16.7786 24.2358,-29.82863 46.6072,-29.82863 5.5929,0 9.3215,0 14.9143,1.86429 V 484.855 c -7.4571,-1.86429 -13.05,-1.86429 -20.5071,-1.86429 -24.2358,0 -42.8787,14.91431 -42.8787,44.74294 v 89.48589 z m -885.5374,0 V 436.38347 h 44.7429 l 7.4572,27.96434 c 7.4571,-16.7786 24.2357,-29.82863 46.6072,-29.82863 5.5929,0 9.3214,0 14.9143,1.86429 V 484.855 c -9.3214,-3.72858 -14.9143,-3.72858 -22.3715,-3.72858 -24.2357,0 -42.8786,14.91431 -42.8786,44.74294 v 89.48589 z M 5448.8278,915.50583 V 645.18388 h 52.2001 v 218.12185 h 117.4503 v 50.33581 z m 277.7792,3.72857 c -54.0644,0 -96.9431,-39.15007 -96.9431,-95.07875 0,-50.33581 37.2858,-96.94304 96.9431,-96.94304 44.7429,0 89.4858,33.5572 89.4858,95.07875 0,5.59287 0,9.32145 -1.8643,20.50718 H 5681.864 c 5.5929,20.50719 22.3715,33.55721 46.6072,33.55721 20.5072,0 35.4215,-7.45716 48.4716,-20.50718 l 31.6929,31.69292 c -20.5072,18.64289 -50.3358,31.69291 -82.0287,31.69291 m -1.8643,-149.14314 c -20.5072,0 -39.1501,13.05003 -44.743,31.69292 h 83.893 c -1.8643,-16.77861 -18.6429,-31.69292 -39.15,-31.69292 m 835.2016,149.14314 c -54.0644,0 -96.9431,-39.15007 -96.9431,-95.07875 0,-50.33581 37.2858,-96.94304 96.9431,-96.94304 44.7429,0 89.4859,33.5572 89.4859,95.07875 0,5.59287 0,9.32145 -1.8643,20.50718 H 6513.337 c 5.5929,20.50719 22.3715,33.55721 46.6073,33.55721 20.5072,0 35.4215,-7.45716 48.4715,-20.50718 l 31.6929,31.69292 c -20.5072,18.64289 -48.4715,31.69291 -80.1644,31.69291 M 6558.08,770.09126 c -20.5072,0 -39.1501,13.05003 -44.743,31.69292 h 83.8931 c -1.8643,-16.77861 -16.7786,-31.69292 -39.1501,-31.69292 M 6431.3083,619.08383 c -54.0644,0 -96.943,-39.15008 -96.943,-95.07876 0,-50.33581 37.2858,-96.94304 96.943,-96.94304 44.743,0 89.4859,33.55721 89.4859,95.07875 0,5.59287 0,9.32145 -1.8643,20.50718 h -134.2288 c 5.5928,20.50719 22.3714,33.55721 46.6072,33.55721 20.5072,0 35.4215,-7.45715 48.4715,-20.50718 l 31.693,31.69292 c -20.5072,18.64289 -50.3359,31.69292 -80.1645,31.69292 m -3.7286,-147.27886 c -20.5072,0 -39.15,13.05003 -44.7429,31.69292 h 83.893 c -1.8643,-16.7786 -18.6429,-31.69292 -39.1501,-31.69292 m -563.0153,147.27886 c -54.0644,0 -96.9431,-39.15008 -96.9431,-95.07876 0,-50.33581 37.2858,-96.94304 96.9431,-96.94304 44.7429,0 89.4858,33.55721 89.4858,95.07875 0,5.59287 0,9.32145 -1.8642,20.50718 h -134.2289 c 5.5929,20.50719 22.3715,33.55721 46.6073,33.55721 20.5071,0 35.4215,-7.45715 48.4715,-20.50718 l 31.6929,31.69292 c -22.3715,18.64289 -48.4715,31.69292 -80.1644,31.69292 m -1.8643,-147.27886 c -20.5072,0 -39.1501,13.05003 -44.743,31.69292 h 83.893 c -1.8642,-16.7786 -20.5071,-31.69292 -39.15,-31.69292 m 285.2362,303.87916 c -27.9643,0 -48.4715,20.50718 -48.4715,48.47152 0,27.96434 20.5072,48.47152 48.4715,48.47152 27.9644,0 48.4716,-20.50718 48.4716,-48.47152 0,-27.96434 -20.5072,-48.47152 -48.4716,-48.47152 m 46.6073,-20.50718 7.4571,-22.37148 h 44.743 v 171.51462 c 0,33.55721 -9.3215,57.79297 -31.6929,76.43586 -16.7787,13.05003 -39.1501,22.37145 -67.1145,22.37145 -37.2858,0 -65.2501,-13.05 -87.6216,-33.55718 l 29.8287,-39.15008 c 14.9143,13.05003 31.6929,24.23576 54.0644,24.23576 37.2857,0 52.2001,-20.50718 52.2001,-46.60723 v -13.05003 c -14.9144,16.77861 -33.5573,22.37148 -50.3359,22.37148 -50.3358,0 -91.3501,-42.87866 -91.3501,-95.07876 0,-52.2001 42.8786,-91.35018 91.3501,-91.35018 18.6429,-1.86428 37.2858,9.32145 48.4716,24.23577"
     id="path4-0"
     inkscape:connector-curvature="0"
     style="fill:#360c3a;stroke-width:18.64289284"
     inkscape:export-filename="G:\Users\suitedoalex\sites\premier-league-1.png"
     inkscape:export-xdpi="71.253929"
     inkscape:export-ydpi="71.253929" />
  <path
     d="m 10333.479,1263.3897 c 0,0 246.086,-316.92921 333.708,-514.54388 l -76.436,-18.64289 c 0,0 208.8,-328.11492 277.779,-585.38685 H 7958.3742 V 1263.3897 Z"
     id="path2-9"
     style="fill:#00d873;fill-opacity:1;stroke-width:18.64289284"
     inkscape:connector-curvature="0"
     inkscape:export-filename="G:\Users\suitedoalex\sites\premier-league-2.png"
     inkscape:export-xdpi="71.253929"
     inkscape:export-ydpi="71.253929" />
  <path
     d="m 8217.5104,361.07364 c 37.2858,16.77861 59.6572,37.28579 61.5215,42.87866 -1.8643,-9.32145 -7.4571,-54.06439 -13.05,-82.02873 20.5072,14.91431 68.9787,48.47152 87.6216,59.65726 7.4571,-20.50719 29.8286,-87.6216 29.8286,-87.6216 0,0 42.8787,67.11441 48.4715,76.43586 7.4572,-7.45716 57.793,-61.52155 68.9787,-76.43586 1.8643,31.69292 5.5929,76.43586 7.4572,83.89302 1.8643,-5.59287 20.5072,-31.69292 52.2001,-52.2001 -14.9143,27.96434 -20.5072,61.52154 -22.3715,95.07875 -31.6929,-7.45716 -61.5215,-14.91431 -98.8073,-14.91431 -65.2501,0 -126.7717,16.7786 -178.9718,48.47152 -9.3214,-33.55721 -24.2357,-68.97871 -42.8786,-93.21447 z m 497.7652,572.33682 -29.8286,-33.55721 c -7.4572,87.6216 -48.4715,158.46455 -128.636,210.66475 l -13.05,-48.4716 c -65.2501,48.4716 -178.9718,76.4359 -274.0505,22.3715 13.05,-61.5215 22.3714,-124.90739 0,-199.47896 -52.2001,83.89302 -102.5359,117.45026 -102.5359,117.45026 -35.4215,-61.52158 -33.5573,-182.70039 -20.5072,-218.12188 l -57.793,22.37147 c 0,-42.87866 29.8286,-128.63596 72.7073,-177.10749 l -37.2858,-7.45715 c 24.2358,-50.33581 61.5216,-96.94305 111.8574,-132.36454 -14.9144,22.37147 -14.9144,76.43586 27.9643,96.94304 -16.7786,-31.69292 -20.5072,-67.11442 -1.8643,-89.48589 20.5072,-20.50718 48.4715,-13.05002 67.1144,1.86429 -7.4571,-16.7786 -22.3714,-39.15007 -48.4715,-39.15007 48.4715,-24.23576 102.5359,-39.15008 158.4646,-39.15008 9.3214,0 20.5072,0 33.5572,1.86429 16.7786,7.45716 42.8787,31.69292 52.2001,46.60723 0,0 0,-16.7786 -7.4572,-39.15007 61.5216,14.91431 91.3502,42.87865 104.4002,52.2001 1.8643,27.96434 9.3215,44.74294 20.5072,68.9787 -20.5072,-22.37147 -72.7073,-59.65726 -96.943,-67.11441 0,0 -1.8643,22.37147 -9.3215,35.42149 -48.4715,-35.42149 -72.7072,-44.74294 -72.7072,-44.74294 -52.2001,7.45716 -89.4859,29.82863 -106.2645,46.60723 l 16.7786,14.91432 c -33.5572,9.32144 -52.2001,37.28578 -52.2001,37.28578 l 29.8286,5.59287 c 0,0 -1.8643,33.55721 39.1501,52.2001 35.4215,20.50719 89.4859,-5.59286 136.0931,14.91432 -33.5572,-37.28579 -52.2001,-52.2001 -52.2001,-52.2001 0,0 -13.05,-1.86429 -22.3715,-1.86429 -9.3214,0 -27.9643,1.86429 -46.6072,-5.59287 -7.4572,-5.59287 -20.5072,-9.32145 -27.9644,-14.91431 0,0 22.3715,-22.37148 54.0644,-29.82863 0,0 29.8287,7.45715 52.2001,24.23576 16.7786,-14.91432 31.693,-14.91432 31.693,-14.91432 0,0 -16.7786,14.91432 -9.3215,33.55721 22.3715,20.50718 48.4715,50.33581 48.4715,50.33581 27.9644,-14.91431 82.0288,-9.32144 91.3502,1.86429 -14.9143,-20.50718 -35.4215,-35.4215 -50.3358,-48.47152 -1.8643,-7.45716 -20.5072,-31.69292 -22.3715,-35.4215 0,0 16.7786,7.45716 33.5572,20.50718 5.5929,-7.45715 13.0501,-13.05002 22.3715,-14.91431 13.05,9.32145 14.9143,24.23576 13.05,27.96434 -7.4571,7.45716 -9.3214,7.45716 -9.3214,7.45716 l 27.9643,29.82863 1.8643,-20.50719 c 61.5216,93.21447 96.9431,197.61467 52.2001,329.97921 z M 8595.9611,737.66008 v -48.47152 c 0,0 -20.5072,-7.45716 -44.7429,-24.23576 -46.6073,7.45716 -98.8074,50.33581 -98.8074,50.33581 0,0 20.5072,35.4215 39.1501,72.70728 37.2858,5.59287 87.6216,-35.42149 104.4002,-50.33581 z m 44.7429,83.89302 c 0,0 -5.5928,-20.50718 -20.5071,-37.28578 h -35.4215 c 0,0 -48.4716,42.87865 -76.4359,42.87865 0,0 16.7786,29.82863 24.2358,46.60723 16.7786,-5.59286 44.7429,-16.7786 54.0644,-29.82863 0,0 7.4571,24.23577 7.4571,50.33582 18.6429,-9.32145 39.1501,-31.69292 46.6072,-72.70729 z m 14.9144,-152.87172 c -20.5072,14.91431 -33.5573,22.37147 -33.5573,22.37147 v 48.47152 c 13.0501,14.91432 24.2358,24.23576 35.4215,48.47152 18.6429,-33.5572 14.9144,-78.30015 -1.8642,-119.31451 z m 188.2932,41.01436 V 433.78093 h 89.4859 c 57.7929,0 98.8073,33.5572 98.8073,91.35017 0,57.79297 -42.8787,91.35018 -98.8073,91.35018 h -33.5572 v 89.48589 c 1.8642,3.72857 -55.9287,3.72857 -55.9287,3.72857 z m 55.9287,-141.68598 h 31.6929 c 27.9643,0 48.4715,-14.91432 48.4715,-42.87866 0,-27.96434 -20.5072,-42.87865 -48.4715,-42.87865 h -31.6929 z m 851.9802,443.70084 c -39.1501,0 -89.4859,-22.37146 -89.4859,-89.48588 v -96.94304 h 48.4715 v 91.35018 c 0,31.69292 14.9143,46.60723 39.1501,46.60723 22.3715,0 39.1501,-16.7786 39.1501,-46.60723 v -91.35018 h 48.4715 v 96.94304 c 1.8643,65.25013 -46.6073,89.48588 -85.7573,89.48588 m -434.3794,0 c -48.4716,0 -89.4859,-44.74293 -89.4859,-95.07874 0,-50.33581 42.8786,-91.35018 89.4859,-91.35018 27.9643,0 46.6072,9.32145 54.0644,27.96434 l 7.4571,-24.23576 h 44.743 v 180.83604 h -44.743 l -5.5929,-26.10003 c -9.3214,14.91432 -29.8286,27.96433 -55.9286,27.96433 m 11.1857,-143.55026 c -27.9643,0 -48.4715,20.50718 -48.4715,48.47152 0,27.96434 20.5072,48.47152 48.4715,48.47152 27.9643,0 48.4715,-20.50718 48.4715,-48.47152 0,-27.96434 -20.5072,-48.47152 -48.4715,-48.47152 M 9658.606,525.1311 h 48.4715 v 180.83607 h -48.4715 z m 27.9643,-24.23576 c -20.5071,0 -31.6929,-14.91431 -31.6929,-31.69292 0,-20.50718 14.9143,-31.69292 31.6929,-31.69292 20.5072,0 31.693,14.91432 31.693,31.69292 -1.8643,18.6429 -14.9144,31.69292 -31.693,31.69292 m -104.4002,100.67162 c 0,-20.50718 -9.3214,-31.69291 -29.8286,-31.69291 -20.5072,0 -29.8286,13.05002 -29.8286,33.5572 v 106.26449 h -48.4715 V 599.70267 c 0,-20.50718 -9.3215,-31.69291 -29.8287,-31.69291 -20.5071,0 -29.8286,13.05002 -29.8286,33.5572 v 106.26449 h -48.4715 V 526.99539 h 44.7429 l 7.4572,24.23576 c 0,0 9.3214,-29.82863 46.6072,-29.82863 20.5072,0 39.1501,7.45716 50.3358,27.96434 l 1.8643,1.86429 1.8643,-1.86429 c 20.5072,-24.23576 39.1501,-27.96434 52.2001,-27.96434 39.1501,0 65.2501,29.82863 65.2501,68.97871 V 707.83145 H 9587.763 V 597.83839 c 1.8643,3.72857 -5.5929,3.72857 -5.5929,3.72857 z m 352.3507,108.12878 V 528.85968 h 44.743 l 7.4571,27.96434 c 7.4572,-16.7786 24.2361,-29.82863 46.6071,-29.82863 5.593,0 9.322,0 14.915,1.86429 v 48.47152 c -7.458,-1.86429 -13.051,-1.86429 -20.508,-1.86429 -24.235,0 -42.8784,14.91432 -42.8784,44.74295 v 89.48588 z m -885.5374,0 V 528.85968 h 44.7429 l 7.4572,27.96434 c 7.4572,-16.7786 24.2358,-29.82863 46.6072,-29.82863 5.5929,0 9.3215,0 14.9143,1.86429 v 48.47152 c -9.3214,-3.72858 -14.9143,-3.72858 -22.3714,-3.72858 -24.2358,0 -42.8787,14.91432 -42.8787,44.74295 v 89.48588 z M 8843.9116,1007.982 V 737.66008 h 52.2001 v 218.12185 h 117.4502 v 50.33577 z m 277.7791,3.7286 c -54.0644,0 -96.9431,-39.15006 -96.9431,-95.07874 0,-50.33581 37.2858,-96.94305 96.9431,-96.94305 44.7429,0 89.4859,33.55721 89.4859,95.07876 0,5.59287 0,9.32144 -1.8643,20.50718 h -132.3646 c 5.5929,20.50718 22.3715,33.55721 46.6073,33.55721 20.5072,0 35.4215,-7.45716 48.4715,-20.50718 l 31.6929,31.69291 c -20.5072,18.6429 -50.3358,31.69291 -82.0287,31.69291 m -1.8643,-149.14313 c -20.5072,0 -39.1501,13.05002 -44.7429,31.69292 h 83.893 c -1.8643,-16.77861 -18.6429,-31.69292 -39.1501,-31.69292 m 835.2016,149.14313 c -54.0644,0 -96.943,-39.15006 -96.943,-95.07874 0,-50.33581 37.2857,-96.94305 96.943,-96.94305 44.7429,0 89.486,33.55721 89.486,95.07876 0,5.59287 0,9.32144 -1.864,20.50718 h -134.2292 c 5.5928,20.50718 22.3714,33.55721 46.6072,33.55721 20.5072,0 35.4215,-7.45716 48.472,-20.50718 l 31.692,31.69291 c -20.507,18.6429 -48.4711,31.69291 -80.164,31.69291 m -1.8643,-149.14313 c -20.5072,0 -39.1501,13.05002 -44.7429,31.69292 h 83.893 c -1.8643,-16.77861 -16.7786,-31.69292 -39.1501,-31.69292 M 9826.392,711.56003 c -54.0643,0 -96.943,-39.15007 -96.943,-95.07875 0,-50.33581 37.2858,-96.94305 96.943,-96.94305 44.743,0 89.4859,33.55721 89.4859,95.07876 0,5.59287 0,9.32145 -1.8643,20.50718 h -134.2288 c 5.5929,20.50718 22.3715,33.55721 46.6072,33.55721 20.5072,0 35.4215,-7.45716 48.4716,-20.50718 l 31.6929,31.69291 c -20.5072,18.6429 -50.3358,31.69292 -80.1645,31.69292 m -3.7285,-147.27885 c -20.5072,0 -39.1501,13.05002 -44.743,31.69292 h 83.893 c -1.8643,-16.77861 -18.6429,-31.69292 -39.15,-31.69292 m -563.0154,147.27885 c -54.0644,0 -96.9431,-39.15007 -96.9431,-95.07875 0,-50.33581 37.2858,-96.94305 96.9431,-96.94305 44.7429,0 89.4859,33.55721 89.4859,95.07876 0,5.59287 0,9.32145 -1.8643,20.50718 h -134.2288 c 5.5928,20.50718 22.3714,33.55721 46.6072,33.55721 20.5072,0 35.4215,-7.45716 48.4715,-20.50718 l 31.6929,31.69291 c -22.3714,18.6429 -48.4715,31.69292 -80.1644,31.69292 m -1.8643,-147.27885 c -20.5072,0 -39.1501,13.05002 -44.7429,31.69292 h 83.893 c -1.8643,-16.77861 -20.5072,-31.69292 -39.1501,-31.69292 m 285.2363,303.87916 c -27.9644,0 -48.4716,20.50718 -48.4716,48.47152 0,27.96434 20.5072,48.47152 48.4716,48.47152 27.9643,0 48.4715,-20.50718 48.4715,-48.47152 0,-27.96434 -20.5072,-48.47152 -48.4715,-48.47152 m 46.6072,-20.50719 7.4572,-22.37147 h 44.7429 V 996.7963 c 0,33.5572 -9.3214,57.793 -31.6929,76.4359 -16.7786,13.05 -39.1501,22.3715 -67.1144,22.3715 -37.2858,0 -65.2502,-13.05 -87.6216,-33.5573 l 29.8286,-39.15 c 14.9143,13.05 31.6929,24.2357 54.0644,24.2357 37.2858,0 52.2001,-20.5072 52.2001,-46.6072 v -13.05005 c -14.9143,16.77865 -33.5572,22.37145 -50.3358,22.37145 -50.3358,0 -91.3502,-42.87863 -91.3502,-95.07873 0,-52.2001 42.8787,-91.35018 91.3502,-91.35018 18.6429,-1.86429 37.2858,9.32145 48.4715,24.23576"
     id="path4-1"
     inkscape:connector-curvature="0"
     style="fill:#360c3a;stroke-width:18.64289284"
     inkscape:export-filename="G:\Users\suitedoalex\sites\premier-league-2.png"
     inkscape:export-xdpi="71.253929"
     inkscape:export-ydpi="71.253929" />
  <path
     d="m 10263.302,2770.719 c 0,0 246.086,-316.9292 333.708,-514.5438 l -76.436,-18.6429 c 0,0 208.8,-328.115 277.779,-585.3869 H 7888.1973 V 2770.719 Z"
     id="path2-4"
     style="fill:#000000;fill-opacity:1;stroke-width:18.64289284"
     inkscape:connector-curvature="0"
     inkscape:export-filename="G:\Users\suitedoalex\sites\premier-league-4.png"
     inkscape:export-xdpi="71.253929"
     inkscape:export-ydpi="71.253929" />
  <path
     d="m 8921.352,2205.8913 v -266.4321 h 86.4104 c 55.8067,0 95.4115,32.4039 95.4115,88.2106 0,55.8067 -41.4049,88.2106 -95.4115,88.2106 h -32.4039 v 86.4105 c 1.8002,3.6004 -54.0065,3.6004 -54.0065,3.6004 z m 54.0065,-136.8165 h 30.6037 c 27.0032,0 46.8056,-14.4017 46.8056,-41.405 0,-27.0032 -19.8024,-41.405 -46.8056,-41.405 h -30.6037 z m 822.6993,428.4517 c -37.8046,0 -86.4104,-21.6025 -86.4104,-86.4104 v -93.6113 h 46.8056 v 88.2107 c 0,30.6036 14.4017,45.0054 37.8046,45.0054 21.6026,0 37.8046,-16.202 37.8046,-45.0054 v -88.2107 h 46.8056 v 93.6113 c 1.8002,63.0076 -45.0054,86.4104 -82.81,86.4104 m -419.4506,0 c -46.8056,0 -86.4105,-43.2052 -86.4105,-91.811 0,-48.6059 41.405,-88.2107 86.4105,-88.2107 27.0032,0 45.0054,9.0011 52.2063,27.0033 l 7.2008,-23.4029 h 43.2053 v 174.6212 h -43.2053 l -5.4006,-25.2031 c -9.0011,14.4017 -28.8035,27.0032 -54.0065,27.0032 m 10.8013,-138.6167 c -27.0033,0 -46.8057,19.8024 -46.8057,46.8057 0,27.0032 19.8024,46.8056 46.8057,46.8056 27.0033,0 46.8056,-19.8024 46.8056,-46.8056 0,-27.0033 -19.8023,-46.8057 -46.8056,-46.8057 m 318.6384,-331.24 h 46.8057 v 174.6211 h -46.8057 z m 27.0033,-23.4028 c -19.8024,0 -30.6037,-14.4017 -30.6037,-30.6037 0,-19.8024 14.4018,-30.6037 30.6037,-30.6037 19.8024,0 30.6037,14.4018 30.6037,30.6037 -1.8002,18.0021 -14.4017,30.6037 -30.6037,30.6037 m -100.8121,97.2117 c 0,-19.8024 -9.0012,-30.6037 -28.8036,-30.6037 -19.8024,0 -28.8034,12.6015 -28.8034,32.404 v 102.6123 h -46.8057 v -106.2128 c 0,-19.8024 -9.0011,-30.6037 -28.8034,-30.6037 -19.8024,0 -28.8035,12.6015 -28.8035,32.4039 v 102.6124 h -46.8057 V 2029.47 h 43.2052 l 7.2009,23.4029 c 0,0 9.001,-28.8035 45.0054,-28.8035 19.8024,0 37.8046,7.2008 48.6059,27.0032 l 1.8002,1.8003 1.8002,-1.8003 c 19.8024,-23.4028 37.8046,-27.0032 50.4061,-27.0032 37.8046,0 63.0076,28.8035 63.0076,66.6081 v 113.4136 h -46.8056 v -106.2128 c 1.8002,3.6004 -5.4006,3.6004 -5.4006,3.6004 z m 340.2413,104.4126 v -174.6211 h 43.2056 l 7.2,27.0033 c 7.201,-16.202 23.403,-28.8035 45.006,-28.8035 5.4,0 9,0 14.401,1.8002 v 46.8057 c -7.201,-1.8003 -12.601,-1.8003 -19.802,-1.8003 -23.403,0 -41.405,14.4019 -41.405,43.2053 v 86.4104 z m -855.1035,0 v -174.6211 h 43.2052 l 7.2008,27.0033 c 7.201,-16.202 23.4029,-28.8035 45.0055,-28.8035 5.4006,0 9.0011,0 14.4018,1.8002 v 46.8057 c -9.0012,-3.6004 -14.4018,-3.6004 -21.6027,-3.6004 -23.4028,0 -41.405,14.4017 -41.405,43.2052 v 86.4104 z m -198.0239,288.0348 v -261.0315 h 50.4061 v 210.6255 h 113.4136 v 48.6058 z m 268.2323,3.6004 c -52.2063,0 -93.6112,-37.8045 -93.6112,-91.811 0,-48.6059 36.0043,-93.6114 93.6112,-93.6114 43.2052,0 86.4105,32.404 86.4105,91.8111 0,5.4007 0,9.0011 -1.8002,19.8024 h -127.8154 c 5.4006,19.8025 21.6025,32.4039 45.0054,32.4039 19.8024,0 34.2041,-7.2009 46.8056,-19.8024 l 30.6037,30.6037 c -19.8024,18.0022 -48.6059,30.6037 -79.2096,30.6037 m -1.8002,-144.0174 c -19.8024,0 -37.8046,12.6015 -43.2052,30.6037 h 81.0098 c -1.8002,-16.2019 -18.0022,-30.6037 -37.8046,-30.6037 m 806.4975,144.0174 c -52.2069,0 -93.6114,-37.8045 -93.6114,-91.811 0,-48.6059 36.0044,-93.6114 93.6114,-93.6114 43.2054,0 86.4104,32.404 86.4104,91.8111 0,5.4007 0,9.0011 -1.801,19.8024 h -129.6146 c 5.4008,19.8025 21.6021,32.4039 45.0052,32.4039 19.8024,0 34.2034,-7.2009 46.8054,-19.8024 l 30.604,30.6037 c -19.803,18.0022 -46.806,30.6037 -77.4094,30.6037 m -1.8,-144.0174 c -19.8031,0 -37.8044,12.6015 -43.2052,30.6037 h 81.0096 c -1.801,-16.2019 -16.202,-30.6037 -37.8044,-30.6037 m -122.4151,-145.8175 c -52.2063,0 -93.6113,-37.8046 -93.6113,-91.8112 0,-48.6058 36.0044,-93.6112 93.6113,-93.6112 43.2052,0 86.4106,32.4039 86.4106,91.811 0,5.4007 0,9.0012 -1.7999,19.8024 H 9825.061 c 5.4007,19.8024 21.6027,32.4039 45.0055,32.4039 19.8024,0 34.2042,-7.2008 46.8057,-19.8024 l 30.6033,30.6037 c -19.8021,18.0022 -48.6055,30.6038 -77.409,30.6038 m -3.6004,-142.2172 c -19.8024,0 -37.8046,12.6015 -43.2053,30.6036 h 81.0099 c -1.8002,-16.2019 -18.0022,-30.6036 -37.8046,-30.6036 m -543.6657,142.2172 c -52.2063,0 -93.6112,-37.8046 -93.6112,-91.8112 0,-48.6058 36.0043,-93.6112 93.6112,-93.6112 43.2053,0 86.4105,32.4039 86.4105,91.811 0,5.4007 0,9.0012 -1.8003,19.8024 H 9277.795 c 5.4006,19.8024 21.6026,32.4039 45.0054,32.4039 19.8024,0 34.2042,-7.2008 46.8057,-19.8024 l 30.6036,30.6037 c -21.6025,18.0022 -46.8056,30.6038 -77.4093,30.6038 m -1.8002,-142.2172 c -19.8024,0 -37.8046,12.6015 -43.2052,30.6036 h 81.0098 c -1.8002,-16.2019 -19.8024,-30.6036 -37.8046,-30.6036 m 275.4333,293.4354 c -27.0033,0 -46.8056,19.8024 -46.8056,46.8057 0,27.0032 19.8023,46.8056 46.8056,46.8056 27.0032,0 46.8056,-19.8024 46.8056,-46.8056 0,-27.0033 -19.8024,-46.8057 -46.8056,-46.8057 m 45.0054,-19.8024 7.2009,-21.6026 h 43.2052 v 165.62 c 0,32.4039 -9.0011,55.8067 -30.6037,73.8089 -16.202,12.6015 -37.8046,21.6027 -64.8078,21.6027 -36.0044,0 -63.0076,-12.6016 -84.6102,-32.404 l 28.8034,-37.8045 c 14.4017,12.6015 30.6037,23.4027 52.2063,23.4027 36.0044,0 50.4061,-19.8023 50.4061,-45.0054 v -12.6015 c -14.4017,16.202 -32.4039,21.6027 -48.6058,21.6027 -48.6059,0 -88.2107,-41.4051 -88.2107,-91.8112 0,-50.4061 41.405,-88.2106 88.2107,-88.2106 18.0021,-1.8003 36.0043,9.0011 46.8056,23.4028"
     id="path4-3-7"
     inkscape:connector-curvature="0"
     style="fill:#ffffff;stroke-width:18.00217247"
     sodipodi:nodetypes="ccsssccccssscccsccssscccccssccccccccssscccccccsscccssccssscccccscccssccccccccsccssccccccsccssccccccccccsssccsccccccccsssccsccccccccsssccsccccccccsssccsccccccccsssccccscsccsscsscc"
     inkscape:export-filename="G:\Users\suitedoalex\sites\premier-league-4.png"
     inkscape:export-xdpi="71.253929"
     inkscape:export-ydpi="71.253929" />
  <path
     d="m 8675.196,2390.9878 -28.8035,-32.4039 c -7.2008,84.6103 -46.8056,153.0185 -124.215,203.4246 l -12.6015,-46.8056 c -63.0076,46.8056 -172.8209,73.8089 -264.6319,21.6026 12.6015,-59.4072 21.6026,-120.6146 0,-192.6233 -50.4061,81.0098 -99.012,113.4137 -99.012,113.4137 -34.2041,-59.4072 -32.4039,-176.4213 -19.8024,-210.6254 l -55.8068,21.6026 c 0,-41.405 28.8036,-124.215 70.2085,-171.0206 l -36.0043,-7.2009 c 23.4028,-48.6059 59.4072,-93.6113 108.0131,-127.8154 -14.4018,21.6026 -14.4018,73.8088 27.0032,93.6112 -16.202,-30.6037 -19.8024,-64.8078 -1.8003,-86.4104 19.8025,-19.8023 46.8058,-12.6015 64.808,1.8002 -7.201,-16.202 -21.6027,-37.8045 -46.8058,-37.8045 46.8058,-23.4029 99.012,-37.8046 153.0185,-37.8046 9.0012,0 19.8024,0 32.4039,1.8002 16.202,7.2009 41.4051,30.6037 50.4061,45.0055 0,0 0,-16.202 -7.2008,-37.8046 59.4071,14.4017 88.2106,41.405 100.8122,50.406 1.8002,27.0034 9.001,43.2053 19.8024,66.6081 l 9.5838,24.3947 10.2185,26.0114 c 59.4072,90.0109 93.6113,190.823 50.4061,318.6384 z"
     id="path4-3-9-8"
     inkscape:connector-curvature="0"
     style="fill:none;stroke:#ffffff;stroke-width:18.00217247;stroke-miterlimit:4;stroke-dasharray:none;stroke-opacity:1"
     sodipodi:nodetypes="ccccccccccccccccscccccccc"
     inkscape:export-filename="G:\Users\suitedoalex\sites\premier-league-4.png"
     inkscape:export-xdpi="71.253929"
     inkscape:export-ydpi="71.253929" />
  <path
     style="opacity:1;fill:#ffffff;fill-opacity:1;fill-rule:evenodd;stroke:none;stroke-width:0.269692;stroke-linecap:butt;stroke-linejoin:miter;stroke-miterlimit:4;stroke-dasharray:none;stroke-opacity:1;paint-order:fill markers stroke"
     d="m 8461.6317,2247.6041 c -1.1917,-0.954 -6.7459,-10.5456 -12.3433,-21.2983 -5.5975,-10.7545 -13.4604,-25.3488 -17.4733,-32.4327 l -7.2963,-12.8787 3.4582,-2.6122 c 26.4279,-19.9662 59.6468,-37.4319 80.5419,-42.3465 l 6.9638,-1.6382 13.7571,8.1334 c 7.5663,4.4735 17.0237,9.4872 21.0166,11.1415 l 7.2597,3.01 -0.054,22.3389 -0.054,22.3371 -10.3963,8.2305 c -29.2618,23.1653 -53.6981,35.3995 -77.8191,38.964 -3.4889,0.522 -6.1589,0.18 -7.5603,-0.9542 z"
     id="path967-3"
     inkscape:connector-curvature="0"
     inkscape:export-filename="G:\Users\suitedoalex\sites\premier-league-4.png"
     inkscape:export-xdpi="71.253929"
     inkscape:export-ydpi="71.253929" />
  <path
     style="opacity:1;fill:#ffffff;fill-opacity:1;fill-rule:evenodd;stroke:#000000;stroke-width:0.269692;stroke-linecap:butt;stroke-linejoin:miter;stroke-miterlimit:4;stroke-dasharray:none;stroke-opacity:1;paint-order:fill markers stroke"
     d="m 8560.213,2344.2651 c 0,-8.6177 -4.3786,-33.2663 -7.5227,-42.3466 -0.4753,-1.3682 -2.4928,-0.18 -7.0223,4.2683 -3.4959,3.4042 -10.3003,8.3315 -15.1211,10.9472 -8.8117,4.7796 -29.6439,13.57 -30.2447,12.7617 -1.397,-1.8794 -19.6483,-37.6876 -19.6483,-38.5462 0,-0.6121 2.8674,-1.8741 6.3719,-2.812 13.6252,-3.6436 34.2349,-15.7663 54.1235,-31.8351 l 9.2486,-7.4726 h 16.0432 16.043 l 5.7787,8.5204 c 3.1781,4.6878 7.3162,12.3297 9.1956,16.9814 3.1516,7.8022 3.2899,9.0011 1.7805,15.4135 -4.5314,19.2623 -16.2145,40.5049 -27.9676,50.8544 -9.8701,8.6913 -11.0589,9.0425 -11.0589,3.2656 z"
     id="path969-0"
     inkscape:connector-curvature="0"
     inkscape:export-filename="G:\Users\suitedoalex\sites\premier-league-4.png"
     inkscape:export-xdpi="71.253929"
     inkscape:export-ydpi="71.253929" />
  <path
     style="opacity:1;fill:#ffffff;fill-opacity:1;fill-rule:evenodd;stroke:#000000;stroke-width:0.269692;stroke-linecap:butt;stroke-linejoin:miter;stroke-miterlimit:4;stroke-dasharray:none;stroke-opacity:1;paint-order:fill markers stroke"
     d="m 8613.8772,2235.242 c -2.7466,-4.6985 -9.8765,-14.0758 -15.8443,-20.8374 l -10.8506,-12.2937 v -21.5847 -21.5827 l 14.1138,-9.471 c 7.7626,-5.208 14.4526,-9.4691 14.8664,-9.4691 1.2548,0 3.4601,6.6392 7.6159,22.9239 4.6996,18.4162 6.2617,39.2807 4.0145,53.6195 -1.6023,10.2162 -6.6792,27.3075 -8.1001,27.2625 -0.4518,-0.014 -3.0689,-3.8687 -5.8156,-8.5673 z"
     id="path971-3"
     inkscape:connector-curvature="0"
     inkscape:export-filename="G:\Users\suitedoalex\sites\premier-league-4.png"
     inkscape:export-xdpi="71.253929"
     inkscape:export-ydpi="71.253929" />
  <path
     style="opacity:1;fill:#ffffff;fill-opacity:1;fill-rule:evenodd;stroke:none;stroke-width:0.269692;stroke-linecap:butt;stroke-linejoin:miter;stroke-miterlimit:4;stroke-dasharray:none;stroke-opacity:1;paint-order:fill markers stroke"
     d="m 8235.8787,1919.9394 c -2.9144,-13.6691 -18.3779,-50.0424 -28.1198,-66.1454 -2.58,-4.2647 -4.2654,-7.7535 -3.7453,-7.7535 0.5202,0 5.7618,2.7435 11.648,6.0991 12.7478,7.2639 29.1879,19.6206 33.5924,25.2481 2.2677,2.8983 3.7179,3.7084 5.1279,2.8659 1.6904,-1.0081 1.1881,-6.2468 -3.5682,-37.2483 -3.0438,-19.8384 -5.3589,-36.071 -5.1444,-36.071 0.2143,0 9.3318,6.2864 20.2611,13.9716 25.5417,17.9571 58.8782,39.9666 60.5356,39.9666 0.7075,0 7.263,-17.7484 14.5665,-39.4428 7.3036,-21.6926 13.66,-39.8856 14.1255,-40.4275 0.4663,-0.54 10.2332,13.9013 21.706,32.0961 11.4727,18.1948 21.631,34.1123 22.5736,35.3725 1.5266,2.0396 3.4098,0.522 17.2936,-13.8923 8.5689,-8.9003 22.9678,-24.5334 31.9976,-34.7406 15.8043,-17.8635 16.4519,-18.418 17.3248,-14.832 0.4987,2.0487 1.8823,16.2469 3.0746,31.5524 2.2251,28.5659 4.3592,44.3142 6.0051,44.3142 0.5131,0 1.7103,-2.1459 2.6588,-4.7706 2.5923,-7.1685 16.5049,-23.6801 28.8666,-34.26 6.0364,-5.1647 11.1176,-9.2495 11.2915,-9.0749 0.1801,0.1801 -1.4113,5.4584 -3.5234,11.7429 -4.9539,14.742 -9.1087,34.5263 -11.2051,53.3584 l -1.6669,14.9707 -10.1135,-2.4159 c -5.5624,-1.3322 -18.9122,-4.1208 -29.6661,-6.2072 -18.5159,-3.5897 -21.4831,-3.7877 -55.961,-3.7445 -31.1806,0 -38.8346,0.4681 -53.3048,2.9812 -36.748,6.3835 -62.7176,14.7546 -94.3515,30.4129 -10.754,5.3232 -19.9526,9.8688 -20.4414,10.1027 -0.4878,0.2341 -1.3159,-1.5841 -1.8382,-4.0288 z"
     id="path975-4"
     inkscape:connector-curvature="0"
     inkscape:export-filename="G:\Users\suitedoalex\sites\premier-league-4.png"
     inkscape:export-xdpi="71.253929"
     inkscape:export-ydpi="71.253929" />
  <path
     style="opacity:1;fill:#ffffff;fill-opacity:1;fill-rule:evenodd;stroke:#000000;stroke-width:0.134846;stroke-linecap:butt;stroke-linejoin:miter;stroke-miterlimit:4;stroke-dasharray:none;stroke-opacity:1;paint-order:fill markers stroke"
     d="m 8473.2028,2105.3888 c -6.9138,-1.4942 -16.7575,-1.7282 -46.6039,-1.0982 -43.5069,0.9182 -49.2681,0.18 -66.5759,-8.8534 -18.0186,-9.3756 -30.939,-25.7395 -33.2102,-42.0603 -0.9848,-7.0784 -0.4826,-6.7706 -15.1487,-9.2729 -5.4102,-0.9182 -10.1055,-2.1117 -10.4339,-2.6427 -0.3277,-0.5401 3.7948,-5.1324 9.1626,-10.2253 9.4632,-8.9759 22.8737,-17.1992 33.695,-20.6593 2.7811,-0.8821 5.0566,-2.0594 5.0566,-2.6031 0,-0.54 -3.3374,-3.8686 -7.4165,-7.3899 -4.0791,-3.5212 -7.4165,-6.9776 -7.4165,-7.6797 0,-2.5707 18.5953,-15.057 33.0371,-22.1841 17.1157,-8.4484 34.5586,-14.4035 51.9466,-17.7357 l 12.2051,-2.3403 10.283,5.0875 c 11.3615,5.622 36.368,21.2281 50.9351,31.79 5.1712,3.748 9.7992,6.8156 10.2845,6.8156 1.6382,0 6.3605,-12.7455 8.415,-22.7134 1.1215,-5.4457 2.3173,-10.1784 2.6551,-10.5169 1.1738,-1.1701 24.4396,11.8617 39.2761,22.0041 17.7478,12.1335 36.7999,27.403 45.4252,36.4076 5.3167,5.5501 7.5177,9.7789 14.9716,28.7621 8.1226,20.6845 8.6914,22.8231 8.0689,30.33 l -0.6697,8.0758 -10.4776,-11.3557 -10.4775,-11.3576 3.9294,-3.6707 c 2.8364,-2.6498 3.9257,-4.9272 3.9162,-8.1855 -0.017,-5.966 -5.3483,-17.0247 -10.5731,-21.9321 -3.9705,-3.7282 -4.4591,-3.8488 -9.5323,-2.3277 -2.941,0.8821 -8.2283,3.8831 -11.7495,6.6717 l -6.4019,5.0712 -8.8182,-5.9119 c -10.3741,-6.9579 -24.0568,-14.0634 -25.8969,-13.4495 -0.7128,0.234 3.8873,8.3116 10.221,17.9428 6.3338,9.6312 11.5174,18.1642 11.5192,18.9653 0,0.7921 6.5265,6.965 14.4993,13.6996 7.9728,6.7364 17.2266,15.1075 20.564,18.6017 l 6.0681,6.3566 -4.0453,-0.7921 c -23.0845,-4.5294 -46.0484,-3.9048 -64.1718,1.7461 l -8.645,2.695 -4.1517,-4.3511 c -2.2834,-2.3926 -12.7507,-13.2316 -23.261,-24.087 -19.0277,-19.6511 -19.1092,-19.7609 -19.1092,-26.0239 0,-7.4493 2.5594,-13.0227 9.2507,-20.1445 l 4.9081,-5.2241 -8.1884,0.684 c -8.2108,0.7021 -16.6189,4.0721 -24.1746,9.7122 l -4.0454,3.0207 -11.2856,-6.4753 c -14.0334,-8.0524 -32.8254,-15.1705 -39.9558,-15.1327 -10.2715,0 -36.0875,13.2227 -50.5673,25.7917 -5.9147,5.1343 -5.561,5.5393 13.1355,15.0462 19.0049,9.6637 24.2529,10.886 50.2422,11.6997 12.2372,0.3781 24.0767,1.2602 26.31,1.9334 3.8628,1.1881 46.136,41.9 43.1187,41.5365 -0.7327,-0.1801 -5.2759,-1.0081 -10.0965,-2.0577 z"
     id="path979-7"
     inkscape:connector-curvature="0"
     inkscape:export-filename="G:\Users\suitedoalex\sites\premier-league-4.png"
     inkscape:export-xdpi="71.253929"
     inkscape:export-ydpi="71.253929" />
  <path
     style="fill:none;stroke:#ffffff;stroke-width:33.71641922;stroke-linecap:butt;stroke-linejoin:miter;stroke-miterlimit:4;stroke-dasharray:none;stroke-opacity:1"
     d="m 8261.4639,1939.2989 -46.2835,31.133"
     id="path981-7"
     inkscape:connector-curvature="0"
     sodipodi:nodetypes="cc"
     inkscape:export-filename="G:\Users\suitedoalex\sites\premier-league-4.png"
     inkscape:export-xdpi="71.253929"
     inkscape:export-ydpi="71.253929" />
  <path
     style="fill:none;stroke:#ffffff;stroke-width:29.11649323;stroke-linecap:butt;stroke-linejoin:miter;stroke-miterlimit:4;stroke-dasharray:none;stroke-opacity:1"
     d="m 8220.8292,1962.1851 -3.793,67.0599"
     id="path981-6-9"
     inkscape:connector-curvature="0"
     sodipodi:nodetypes="cc"
     inkscape:export-filename="G:\Users\suitedoalex\sites\premier-league-4.png"
     inkscape:export-xdpi="71.253929"
     inkscape:export-ydpi="71.253929" />
  <path
     style="fill:none;stroke:#ffffff;stroke-width:16.39756203;stroke-linecap:butt;stroke-linejoin:miter;stroke-miterlimit:4;stroke-dasharray:none;stroke-opacity:1"
     d="m 8271.5788,1936.5842 -4.2345,19.0517"
     id="path981-6-2-3"
     inkscape:connector-curvature="0"
     sodipodi:nodetypes="cc"
     inkscape:export-filename="G:\Users\suitedoalex\sites\premier-league-4.png"
     inkscape:export-xdpi="71.253929"
     inkscape:export-ydpi="71.253929" />
  <path
     d="m 616.71653,1471.3911 c 62.70685,28.2181 100.33084,62.7067 103.4662,72.1128 -3.13536,-15.6766 -12.54127,-90.9249 -21.94735,-137.955 34.48879,25.0827 116.00765,81.5188 147.36107,100.3308 12.54128,-34.4886 50.16543,-147.361 50.16543,-147.361 0,0 72.11294,112.8724 81.51885,128.549 12.54144,-12.5414 97.19567,-103.4662 116.00767,-128.549 3.1355,53.3009 9.406,128.549 12.5414,141.0905 3.1354,-9.4061 34.4888,-53.3009 87.7896,-87.7896 -25.0827,47.0301 -34.4888,103.4662 -37.6242,159.9024 -53.3008,-12.5413 -103.4662,-25.0827 -166.17303,-25.0827 -109.73693,0 -213.2033,28.218 -300.99287,81.5188 -15.67663,-56.4361 -40.75934,-116.0076 -72.11277,-156.767 z m 837.13627,962.55 -50.1654,-56.4362 c -12.5415,147.3611 -81.519,266.5041 -216.3387,354.2937 l -21.9474,-81.519 c -109.7369,81.519 -300.99286,128.549 -460.89521,37.6241 21.94736,-103.4662 37.62416,-210.068 0,-335.4815 -87.78956,141.0904 -172.44378,197.5265 -172.44378,197.5265 -59.5715,-103.4664 -56.43614,-307.2636 -34.48879,-366.8351 l -97.19565,37.6242 c 0,-72.113 50.16542,-216.3387 122.27836,-297.8575 l -62.70686,-12.5413 c 40.75951,-84.6544 103.46637,-163.0379 188.12059,-222.6093 -25.08271,37.6241 -25.08271,128.549 47.03006,163.0378 -28.21808,-53.3009 -34.48879,-112.8724 -3.13536,-150.4965 34.48879,-34.4887 81.51885,-21.9473 112.87228,3.1354 -12.54127,-28.2181 -37.62398,-65.8422 -81.51885,-65.8422 81.51885,-40.7595 172.44379,-65.8422 266.50408,-65.8422 15.67663,0 34.48883,0 56.43613,3.1353 28.2181,12.5415 72.1129,53.3008 87.7896,78.3835 0,0 0,-28.218 -12.5415,-65.842 103.4664,25.0827 153.6318,72.1128 175.5792,87.7895 3.1354,47.0301 15.6768,75.2482 34.4888,116.0077 -34.4888,-37.6242 -122.2784,-100.331 -163.0377,-112.8723 0,0 -3.1354,37.624 -15.6768,59.5714 -81.5189,-59.5714 -122.2782,-75.2482 -122.2782,-75.2482 -87.7896,12.5414 -150.49646,50.1655 -178.71452,78.3835 l 28.21806,25.0829 c -56.43614,15.6766 -87.78957,62.7067 -87.78957,62.7067 l 50.16542,9.406 c 0,0 -3.13535,56.4362 65.84222,87.7896 59.57151,34.4889 150.49639,-9.4061 228.87989,25.0828 -56.4361,-62.7069 -87.7895,-87.7896 -87.7895,-87.7896 0,0 -21.9474,-3.1354 -37.6242,-3.1354 -15.67661,0 -47.03005,3.1354 -78.38347,-9.4059 -12.54144,-9.4061 -34.48879,-15.6768 -47.03023,-25.0829 0,0 37.62415,-37.624 90.92493,-50.1654 0,0 50.16557,12.5414 87.78957,40.7595 28.2181,-25.0827 53.3009,-25.0827 53.3009,-25.0827 0,0 -28.218,25.0827 -15.6768,56.4361 37.6242,34.4889 81.5189,84.6543 81.5189,84.6543 47.0302,-25.0827 137.9552,-15.6769 153.6318,3.1353 -25.0827,-34.4888 -59.5715,-59.5715 -84.6542,-81.5188 -3.1354,-12.5415 -34.4888,-53.301 -37.6242,-59.5715 0,0 28.2181,12.5412 56.4362,34.4886 9.4061,-12.5413 21.9475,-21.9474 37.6241,-25.0828 21.9474,15.6769 25.0828,40.7596 21.9474,47.0303 -12.5413,12.5413 -15.6767,12.5413 -15.6767,12.5413 l 47.0301,50.1654 3.1354,-34.4886 c 103.4664,156.767 163.0378,332.3461 87.7896,554.9555 z m -200.6619,-329.211 v -81.5188 c 0,0 -34.4888,-12.5414 -75.2482,-40.7595 -78.3836,12.5414 -166.1732,84.6542 -166.1732,84.6542 0,0 34.4888,59.5715 65.8422,122.2783 62.7069,9.4061 147.3611,-59.5715 175.5792,-84.6542 z m 75.2482,141.0904 c 0,0 -9.406,-34.4888 -34.4887,-62.7069 h -59.5715 c 0,0 -81.519,72.113 -128.5491,72.113 0,0 28.2181,50.1654 40.7595,78.3835 28.2181,-9.4061 75.2482,-28.2181 90.9249,-50.1654 0,0 12.5413,40.7593 12.5413,84.6542 31.3535,-15.6767 65.8422,-53.3008 78.3836,-122.2784 z m 25.0828,-257.098 c -34.4888,25.0827 -56.4363,37.6241 -56.4363,37.6241 v 81.5189 c 21.9475,25.0827 40.7595,40.7593 59.5715,81.5188 31.3534,-56.4361 25.0829,-131.6842 -3.1352,-200.6618 z m 316.6695,68.9776 v -464.0308 h 150.4964 c 97.1955,0 166.1731,56.4362 166.1731,153.6318 0,97.1957 -72.1129,153.6318 -166.1731,153.6318 h -56.4361 v 150.4964 c 3.1352,6.2708 -94.0603,6.2708 -94.0603,6.2708 z m 94.0603,-238.286 h 53.3007 c 47.0301,0 81.5189,-25.0827 81.5189,-72.113 0,-47.0301 -34.4888,-72.1128 -81.5189,-72.1128 h -53.3007 z m 1432.8511,746.2112 c -65.8423,0 -150.4963,-37.6239 -150.4963,-150.4963 v -163.0378 h 81.5187 v 153.6318 c 0,53.3008 25.0827,78.3835 65.8422,78.3835 37.6242,0 65.8422,-28.2181 65.8422,-78.3835 v -153.6318 h 81.5188 v 163.0378 c 3.1354,109.737 -78.3834,150.4963 -144.2256,150.4963 m -730.5347,0 c -81.5189,0 -150.4962,-75.2481 -150.4962,-159.9023 0,-84.6542 72.1127,-153.6318 150.4962,-153.6318 47.0302,0 78.3836,15.6766 90.925,47.0301 l 12.5413,-40.7593 h 75.2482 v 304.128 h -75.2482 l -9.406,-43.8947 c -15.6767,25.0827 -50.1654,47.03 -94.0603,47.03 m 18.8122,-241.4213 c -47.0303,0 -81.5189,34.4888 -81.5189,81.519 0,47.03 34.4886,81.5189 81.5189,81.5189 47.03,0 81.5188,-34.4889 81.5188,-81.5189 0,-47.0302 -34.4888,-81.519 -81.5188,-81.519 m 554.9555,-576.9029 h 81.5189 v 304.1282 h -81.5189 z m 47.03,-40.7593 c -34.4888,0 -53.3007,-25.0829 -53.3007,-53.301 0,-34.4886 25.0827,-53.3007 53.3007,-53.3007 34.4889,0 53.3008,25.0827 53.3008,53.3007 -3.1353,31.3535 -25.0827,53.301 -53.3008,53.301 m -175.5791,169.3084 c 0,-34.4888 -15.6767,-53.3008 -50.1655,-53.3008 -34.4887,0 -50.1654,21.9474 -50.1654,56.4362 v 178.7145 h -81.5188 v -184.9852 c 0,-34.4889 -15.6768,-53.3008 -50.1656,-53.3008 -34.4886,0 -50.1654,21.9473 -50.1654,56.4361 v 178.7145 h -81.5189 v -304.1282 h 75.2481 l 12.5415,40.7595 c 0,0 15.6766,-50.1656 78.3835,-50.1656 34.4888,0 65.8422,12.5414 84.6542,47.0302 l 3.1354,3.1354 3.1353,-3.1354 c 34.4888,-40.7595 65.8422,-47.0302 87.7896,-47.0302 65.8422,0 109.7369,50.1656 109.7369,116.0076 v 197.5267 h -81.5189 v -184.9852 c 3.1354,6.2707 -9.406,6.2707 -9.406,6.2707 z m 592.5797,181.8499 v -304.1283 h 75.2481 l 12.5414,47.0301 c 12.5413,-28.218 40.7594,-50.1654 78.3835,-50.1654 9.4061,0 15.6768,0 25.0827,3.1353 v 81.5189 c -12.5412,-3.1354 -21.9473,-3.1354 -34.4886,-3.1354 -40.7595,0 -72.113,25.0827 -72.113,75.2484 v 150.4964 z m -1489.2874,0 v -304.1283 h 75.2481 l 12.5415,47.0301 c 12.5413,-28.218 40.7593,-50.1654 78.3835,-50.1654 9.406,0 15.6767,0 25.0827,3.1353 v 81.5189 c -15.6767,-6.2707 -25.0827,-6.2707 -37.6241,-6.2707 -40.7594,0 -72.1129,25.0829 -72.1129,75.2483 v 150.4964 z m -344.8876,501.6545 v -454.6245 h 87.7896 v 366.835 h 197.5265 v 84.6544 z m 467.1659,6.2707 c -90.9249,0 -163.0379,-65.8422 -163.0379,-159.9023 0,-84.6542 62.7069,-163.0379 163.0379,-163.0379 75.2482,0 150.4965,56.4362 150.4965,159.9025 0,9.406 0,15.6767 -3.1354,34.4888 H 2062.109 c 9.4061,34.4887 37.6242,56.4362 78.3837,56.4362 34.4886,0 59.5715,-12.5415 81.5188,-34.4888 l 53.3008,53.3008 c -34.4888,31.3534 -84.6542,53.3007 -137.955,53.3007 m -3.1353,-250.8272 c -34.4888,0 -65.8422,21.9474 -75.2482,53.3008 h 141.0904 c -3.1354,-28.2181 -31.3535,-53.3008 -65.8422,-53.3008 m 1404.633,250.8272 c -90.925,0 -163.0378,-65.8422 -163.0378,-159.9023 0,-84.6542 62.7069,-163.0379 163.0378,-163.0379 75.2482,0 150.4966,56.4362 150.4966,159.9025 0,9.406 0,15.6767 -3.1354,34.4888 h -225.7447 c 9.4061,34.4887 37.6242,56.4362 78.3835,56.4362 34.4888,0 59.5715,-12.5415 81.519,-34.4888 l 53.3008,53.3008 c -34.4889,31.3534 -81.5189,53.3007 -134.8198,53.3007 m -3.1354,-250.8272 c -34.4886,0 -65.842,21.9474 -75.2481,53.3008 h 141.0904 c -3.1354,-28.2181 -28.2181,-53.3008 -65.8423,-53.3008 m -213.2031,-253.9628 c -90.9249,0 -163.0379,-65.8421 -163.0379,-159.9024 0,-84.6542 62.7069,-163.0378 163.0379,-163.0378 75.2481,0 150.4965,56.4363 150.4965,159.9025 0,9.4061 0,15.6766 -3.1354,34.4888 h -225.7448 c 9.4061,34.4888 37.6242,56.4361 78.3837,56.4361 34.4888,0 59.5715,-12.5414 81.5188,-34.4888 l 53.3008,53.3008 c -34.4888,31.3535 -84.6542,53.3008 -134.8196,53.3008 m -6.2708,-247.692 c -34.4887,0 -65.8421,21.9474 -75.2482,53.3008 h 141.0905 c -3.1354,-28.2181 -31.3535,-53.3008 -65.8423,-53.3008 m -946.8731,247.692 c -90.9249,0 -163.0378,-65.8421 -163.0378,-159.9024 0,-84.6542 62.7068,-163.0378 163.0378,-163.0378 75.2482,0 150.4964,56.4363 150.4964,159.9025 0,9.4061 0,15.6766 -3.1353,34.4888 h -225.7448 c 9.4061,34.4888 37.6242,56.4361 78.3837,56.4361 34.4888,0 59.5715,-12.5414 81.5189,-34.4888 l 53.3008,53.3008 c -37.6242,31.3535 -81.5189,53.3008 -134.8197,53.3008 m -3.1353,-247.692 c -34.4888,0 -65.8423,21.9474 -75.2484,53.3008 h 141.0904 c -3.1352,-28.2181 -34.4886,-53.3008 -65.842,-53.3008 m 479.7072,511.0607 c -47.0301,0 -81.5189,34.4888 -81.5189,81.519 0,47.03 34.4888,81.5189 81.5189,81.5189 47.0302,0 81.519,-34.4889 81.519,-81.5189 0,-47.0302 -34.4888,-81.519 -81.519,-81.519 m 78.3836,-34.4886 12.5413,-37.6242 h 75.2483 v 288.4514 c 0,56.4362 -15.6768,97.1957 -53.3008,128.5491 -28.2181,21.9474 -65.8422,37.624 -112.8723,37.624 -62.7068,0 -109.7371,-21.9473 -147.361,-56.4361 l 50.1654,-65.8421 c 25.0827,21.9474 53.3008,40.7594 90.9249,40.7594 62.7069,0 87.7896,-34.4888 87.7896,-78.3835 v -21.9474 c -25.0827,28.2181 -56.4362,37.624 -84.6543,37.624 -84.6542,0 -153.6317,-72.1128 -153.6317,-159.9024 0,-87.7895 72.1128,-153.6317 153.6317,-153.6317 31.3535,-3.1354 62.7068,15.6768 81.5189,40.7595"
     id="path4-15"
     inkscape:connector-curvature="0"
     style="fill:#360c3a;stroke-width:31.35341835"
     inkscape:export-filename="G:\Users\suitedoalex\sites\premier-league-9.png"
     inkscape:export-xdpi="11.653158"
     inkscape:export-ydpi="11.653158" />
  <path
     d="m 5153.2949,2874.5098 c 62.7069,28.2181 100.3308,62.7067 103.4662,72.1128 -3.1354,-15.6766 -12.5413,-90.9249 -21.9473,-137.955 34.4887,25.0827 116.0076,81.5188 147.361,100.3308 12.5413,-34.4886 50.1655,-147.361 50.1655,-147.361 0,0 72.1129,112.8724 81.5188,128.549 12.5414,-12.5414 97.1957,-103.4662 116.0077,-128.549 3.1355,53.3009 9.406,128.549 12.5414,141.0905 3.1354,-9.4061 34.4888,-53.3009 87.7896,-87.7896 -25.0827,47.0301 -34.4888,103.4662 -37.6242,159.9024 -53.3008,-12.5413 -103.4662,-25.0827 -166.1731,-25.0827 -109.7369,0 -213.2033,28.218 -300.9928,81.5188 -15.6767,-56.4361 -40.7594,-116.0076 -72.1128,-156.767 z m 837.1362,962.55 -50.1654,-56.4362 c -12.5414,147.3611 -81.5189,266.5041 -216.3386,354.2937 l -21.9474,-81.519 c -109.7369,81.519 -300.9929,128.549 -460.8952,37.6241 21.9473,-103.4662 37.6241,-210.068 0,-335.4815 -87.7896,141.0904 -172.4438,197.5265 -172.4438,197.5265 -59.5715,-103.4664 -56.4362,-307.2636 -34.4888,-366.8351 l -97.1957,37.6242 c 0,-72.113 50.1655,-216.3387 122.2784,-297.8575 l -62.7069,-12.5413 c 40.7596,-84.6544 103.4664,-163.0379 188.1206,-222.6093 -25.0827,37.6241 -25.0827,128.549 47.0301,163.0378 -28.2181,-53.3009 -34.4888,-112.8724 -3.1354,-150.4965 34.4888,-34.4887 81.5189,-21.9473 112.8723,3.1354 -12.5413,-28.2181 -37.624,-65.8422 -81.5188,-65.8422 81.5188,-40.7595 172.4438,-65.8422 266.504,-65.8422 15.6767,0 34.4889,0 56.4362,3.1353 28.2181,12.5415 72.1129,53.3008 87.7896,78.3835 0,0 0,-28.218 -12.5415,-65.842 103.4664,25.0827 153.6318,72.1128 175.5792,87.7895 3.1354,47.0301 15.6768,75.2482 34.4888,116.0077 -34.4888,-37.6242 -122.2784,-100.331 -163.0377,-112.8723 0,0 -3.1354,37.624 -15.6768,59.5714 -81.5189,-59.5714 -122.2782,-75.2482 -122.2782,-75.2482 -87.7896,12.5414 -150.4965,50.1655 -178.7145,78.3835 l 28.218,25.0829 c -56.4361,15.6766 -87.7896,62.7067 -87.7896,62.7067 l 50.1655,9.406 c 0,0 -3.1354,56.4362 65.8422,87.7896 59.5715,34.4889 150.4964,-9.4061 228.8799,25.0828 -56.4361,-62.7069 -87.7895,-87.7896 -87.7895,-87.7896 0,0 -21.9474,-3.1354 -37.6242,-3.1354 -15.6766,0 -47.0301,3.1354 -78.3835,-9.4059 -12.5414,-9.4061 -34.4888,-15.6768 -47.0302,-25.0829 0,0 37.6241,-37.624 90.9249,-50.1654 0,0 50.1656,12.5414 87.7896,40.7595 28.2181,-25.0827 53.3009,-25.0827 53.3009,-25.0827 0,0 -28.218,25.0827 -15.6768,56.4361 37.6242,34.4889 81.5189,84.6543 81.5189,84.6543 47.0302,-25.0827 137.9552,-15.6769 153.6318,3.1353 -25.0827,-34.4888 -59.5715,-59.5715 -84.6542,-81.5188 -3.1354,-12.5415 -34.4888,-53.301 -37.6242,-59.5715 0,0 28.2181,12.5412 56.4362,34.4886 9.4061,-12.5413 21.9475,-21.9474 37.6241,-25.0828 21.9474,15.6769 25.0828,40.7596 21.9474,47.0303 -12.5413,12.5413 -15.6767,12.5413 -15.6767,12.5413 l 47.0301,50.1654 3.1354,-34.4886 c 103.4663,156.767 163.0377,332.3461 87.7895,554.9555 z m -200.6618,-329.211 V 3426.33 c 0,0 -34.4888,-12.5414 -75.2482,-40.7595 -78.3836,12.5414 -166.1732,84.6542 -166.1732,84.6542 0,0 34.4888,59.5715 65.8422,122.2783 62.7069,9.4061 147.3611,-59.5715 175.5792,-84.6542 z m 75.2482,141.0904 c 0,0 -9.406,-34.4888 -34.4887,-62.7069 h -59.5715 c 0,0 -81.519,72.113 -128.5491,72.113 0,0 28.2181,50.1654 40.7595,78.3835 28.2181,-9.4061 75.2482,-28.2181 90.9249,-50.1654 0,0 12.5413,40.7593 12.5413,84.6542 31.3535,-15.6767 65.8422,-53.3008 78.3836,-122.2784 z m 25.0828,-257.098 c -34.4888,25.0827 -56.4363,37.6241 -56.4363,37.6241 v 81.5189 c 21.9475,25.0827 40.7595,40.7593 59.5715,81.5188 31.3534,-56.4361 25.0829,-131.6842 -3.1352,-200.6618 z"
     id="path4-15-0"
     inkscape:connector-curvature="0"
     style="fill:#360c3a;stroke-width:31.35341835"
     sodipodi:nodetypes="ccccccccccsccccccccccccccccccscccccccccccccccscccccccccccccccccccccccccccccccccccc"
     inkscape:export-filename="G:\Users\suitedoalex\sites\premier-league-5.png"
     inkscape:export-xdpi="190.7114"
     inkscape:export-ydpi="190.7114" />
</svg>
